<?xml version="1.0" encoding="UTF-8"?>
<!DOCTYPE svg PUBLIC "-//W3C//DTD SVG 1.1//EN" "http://www.w3.org/Graphics/SVG/1.1/DTD/svg11.dtd">
<svg xmlns="http://www.w3.org/2000/svg" version="1.1" width="3840px" height="2160px" style="shape-rendering:geometricPrecision; text-rendering:geometricPrecision; image-rendering:optimizeQuality; fill-rule:evenodd; clip-rule:evenodd" xmlns:xlink="http://www.w3.org/1999/xlink">
<g><path style="opacity:1" fill="#000000" d="M 1773.5,90.5 C 1786.83,90.5 1800.17,90.5 1813.5,90.5C 1813.73,95.5529 1811.9,97.2196 1808,95.5C 1806.01,97.2318 1804.17,99.0652 1802.5,101C 1805.18,106.692 1807.85,112.359 1810.5,118C 1810.17,118.333 1809.83,118.667 1809.5,119C 1813.03,124.22 1816.2,129.72 1819,135.5C 1819.3,139.587 1820.8,143.087 1823.5,146C 1823.17,146.333 1822.83,146.667 1822.5,147C 1825.07,151.499 1827.73,155.999 1830.5,160.5C 1832.77,150.814 1836.27,141.481 1841,132.5C 1844.43,121.916 1847.93,111.416 1851.5,101C 1851.17,100.167 1850.83,99.3333 1850.5,98.5C 1848.55,97.9756 1846.88,96.9756 1845.5,95.5C 1844.28,96.7111 1843.11,96.7111 1842,95.5C 1841.51,93.8659 1841.34,92.1992 1841.5,90.5C 1852.17,90.5 1862.83,90.5 1873.5,90.5C 1872.3,92.648 1871.47,94.648 1871,96.5C 1870,96.1667 1869,95.8333 1868,95.5C 1866.67,97.5 1865,99.1667 1863,100.5C 1861.91,103.906 1860.41,107.072 1858.5,110C 1858.83,110.333 1859.17,110.667 1859.5,111C 1855.67,119.816 1851.84,128.65 1848,137.5C 1845.18,145.77 1842.51,154.103 1840,162.5C 1839.5,163.667 1838.67,164.5 1837.5,165C 1838.87,167.239 1838.37,169.073 1836,170.5C 1833.96,176.277 1832.13,182.11 1830.5,188C 1829.39,189.394 1828.05,190.561 1826.5,191.5C 1824.24,188.926 1822.24,186.092 1820.5,183C 1819.74,179.698 1818.4,176.698 1816.5,174C 1816.83,173.667 1817.17,173.333 1817.5,173C 1815.11,170.04 1813.11,167.374 1811.5,165C 1807.78,154.034 1802.95,143.201 1797,132.5C 1796.7,130.112 1795.86,127.945 1794.5,126C 1794.83,125.667 1795.17,125.333 1795.5,125C 1792.98,121.766 1790.65,118.433 1788.5,115C 1786.47,111.031 1784.63,106.531 1783,101.5C 1782.17,100.667 1781.33,99.8333 1780.5,99C 1776.58,99.0976 1773.58,97.5976 1771.5,94.5C 1772.63,93.3777 1773.3,92.0443 1773.5,90.5 Z"/></g>
<g><path style="opacity:1" fill="#000000" d="M 1885.5,93.5 C 1893.75,93.6583 1901.92,93.6583 1910,93.5C 1912.63,94.6556 1915.3,95.6556 1918,96.5C 1920.49,96.4369 1922.99,96.1036 1925.5,95.5C 1928.28,95.6074 1930.28,96.9407 1931.5,99.5C 1929.69,101.719 1927.52,102.386 1925,101.5C 1922.04,101.883 1919.37,102.883 1917,104.5C 1915.13,122.041 1913.29,139.541 1911.5,157C 1912.06,157.725 1912.39,158.558 1912.5,159.5C 1911.86,165.765 1910.86,171.931 1909.5,178C 1910.25,179.734 1910.75,181.567 1911,183.5C 1914.05,185.964 1917.55,187.464 1921.5,188C 1923.04,189.11 1923.7,190.61 1923.5,192.5C 1911.56,192.8 1899.72,192.134 1888,190.5C 1885.67,190.833 1883.33,191.167 1881,191.5C 1879.75,190.789 1878.58,189.956 1877.5,189C 1877.03,187.038 1877.7,185.205 1879.5,183.5C 1883,184.745 1886.34,184.245 1889.5,182C 1890.78,179.185 1892.12,176.352 1893.5,173.5C 1892.82,169.913 1892.49,166.413 1892.5,163C 1892.51,161.596 1893.01,160.43 1894,159.5C 1895.29,143.158 1896.62,126.825 1898,110.5C 1898.5,109.5 1899,108.5 1899.5,107.5C 1898.13,105.51 1897.13,103.343 1896.5,101C 1893.12,99.4142 1889.45,98.5809 1885.5,98.5C 1885.5,96.8333 1885.5,95.1667 1885.5,93.5 Z"/></g>
<g><path style="opacity:1" fill="#000000" d="M 1720.5,95.5 C 1725.71,95.8052 1730.88,95.8052 1736,95.5C 1736.5,96 1737,96.5 1737.5,97C 1741.44,97.9929 1745.44,98.6596 1749.5,99C 1761.08,107.732 1764.58,118.899 1760,132.5C 1754.78,139.527 1747.95,144.194 1739.5,146.5C 1749.37,156.873 1759.37,167.04 1769.5,177C 1770.45,177.483 1771.45,177.649 1772.5,177.5C 1772.33,178.822 1772.66,179.989 1773.5,181C 1776.83,181.667 1780.17,182.333 1783.5,183C 1784.58,184.726 1784.74,186.559 1784,188.5C 1781.52,189.244 1778.85,189.244 1776,188.5C 1770.52,190.94 1765.02,191.773 1759.5,191C 1746.93,177.387 1733.93,164.221 1720.5,151.5C 1718.94,150.926 1717.44,150.26 1716,149.5C 1715.13,150.108 1714.63,150.941 1714.5,152C 1715.91,160.097 1716.74,168.263 1717,176.5C 1717.16,178.676 1718,180.509 1719.5,182C 1719.17,182.333 1718.83,182.667 1718.5,183C 1721.44,187.252 1725.44,188.919 1730.5,188C 1732.04,189.11 1732.7,190.61 1732.5,192.5C 1730.18,192.229 1728.18,192.896 1726.5,194.5C 1725.17,194.167 1723.83,193.833 1722.5,193.5C 1715,195.205 1707.34,196.372 1699.5,197C 1698.58,197.374 1697.75,197.874 1697,198.5C 1694.93,198.742 1692.76,198.409 1690.5,197.5C 1690.21,195.712 1690.55,194.045 1691.5,192.5C 1694.51,191.935 1697.34,190.935 1700,189.5C 1700.55,175.113 1699.88,160.78 1698,146.5C 1696.38,145.464 1696.22,144.297 1697.5,143C 1695.95,131.834 1694.12,120.668 1692,109.5C 1688.53,107.274 1684.69,105.941 1680.5,105.5C 1679.15,103.389 1679.48,101.555 1681.5,100C 1692.48,99.001 1703.48,98.3343 1714.5,98C 1717.05,97.9977 1719.05,97.1644 1720.5,95.5 Z M 1721.5,104.5 C 1730.63,104.178 1737.46,107.844 1742,115.5C 1745.15,124.422 1742.98,131.589 1735.5,137C 1728.94,140.481 1721.94,142.648 1714.5,143.5C 1713.9,131.449 1713.07,119.449 1712,107.5C 1715.42,107.002 1718.59,106.002 1721.5,104.5 Z"/></g>
<g><path style="opacity:1" fill="#000000" d="M 1976.5,101.5 C 1979.04,101.104 1981.21,101.771 1983,103.5C 1984.92,100.967 1986.92,100.967 1989,103.5C 1990.27,103.384 1991.6,103.051 1993,102.5C 2001.38,105.066 2009.38,108.399 2017,112.5C 2020.04,110.465 2023.04,109.131 2026,108.5C 2027.46,109.459 2028.3,110.792 2028.5,112.5C 2026.53,121.39 2025.36,130.39 2025,139.5C 2023.98,140.891 2023.15,142.391 2022.5,144C 2020.63,144.711 2019.13,144.211 2018,142.5C 2016.53,132.082 2011.7,123.249 2003.5,116C 1999.9,114.691 1996.4,113.191 1993,111.5C 1989.29,112.638 1985.63,112.638 1982,111.5C 1973.94,114.871 1966.94,119.871 1961,126.5C 1960.67,128.167 1960.33,129.833 1960,131.5C 1957.64,134.938 1955.48,138.438 1953.5,142C 1954.73,145.348 1954.23,148.515 1952,151.5C 1951.33,156.833 1951.33,162.167 1952,167.5C 1952.85,169.01 1953.68,170.51 1954.5,172C 1954.36,172.772 1954.02,173.439 1953.5,174C 1957.68,179.999 1962.35,185.665 1967.5,191C 1980.54,196.996 1993.54,196.996 2006.5,191C 2008.98,187.594 2012.31,186.094 2016.5,186.5C 2016.38,188.484 2017.05,190.15 2018.5,191.5C 2011.44,197.018 2004.11,201.352 1996.5,204.5C 1977.18,207.419 1960.18,202.419 1945.5,189.5C 1942.51,186.006 1939.68,182.34 1937,178.5C 1936.5,173.338 1935,168.505 1932.5,164C 1932.64,158.857 1932.64,153.69 1932.5,148.5C 1934.52,141.438 1936.85,134.438 1939.5,127.5C 1943.01,122.77 1947.01,117.937 1951.5,113C 1955.16,111.503 1958.5,109.503 1961.5,107C 1965.46,105.621 1969.29,104.121 1973,102.5C 1974.76,103.985 1975.92,103.652 1976.5,101.5 Z"/></g>
<g><path style="opacity:1" fill="#000000" d="M 1656.5,104.5 C 1658.5,104.5 1660.5,104.5 1662.5,104.5C 1663.89,111.19 1665.55,117.857 1667.5,124.5C 1666.38,128.597 1664.04,129.43 1660.5,127C 1657.92,123.842 1655.59,120.508 1653.5,117C 1649.17,116.333 1644.83,116.333 1640.5,117C 1633.04,119.544 1625.04,121.377 1616.5,122.5C 1618.57,133.422 1620.24,144.422 1621.5,155.5C 1631.11,154.291 1640.44,152.124 1649.5,149C 1653.85,145.492 1655.52,141.492 1654.5,137C 1656.55,132.366 1658.55,132.366 1660.5,137C 1661.53,142.365 1663.03,147.531 1665,152.5C 1665.74,158.202 1666.57,163.868 1667.5,169.5C 1665.17,169.5 1662.83,169.5 1660.5,169.5C 1660.64,167.876 1659.97,166.71 1658.5,166C 1658.83,165.667 1659.17,165.333 1659.5,165C 1657.21,162.868 1655.04,160.701 1653,158.5C 1650.05,157.968 1647.22,158.635 1644.5,160.5C 1643.56,160.392 1642.72,160.059 1642,159.5C 1639.44,160.98 1636.77,162.313 1634,163.5C 1630.61,162.635 1627.44,163.302 1624.5,165.5C 1626.29,171.877 1628.12,178.211 1630,184.5C 1630.76,186.769 1630.59,188.936 1629.5,191C 1631.77,193.344 1632.94,196.178 1633,199.5C 1634.43,201.584 1636.09,201.584 1638,199.5C 1639.11,199.585 1640.11,199.919 1641,200.5C 1647.72,198.384 1654.55,196.551 1661.5,195C 1663.82,193.076 1666.49,191.743 1669.5,191C 1672.99,185.861 1675.82,180.361 1678,174.5C 1679.03,172.639 1680.53,171.305 1682.5,170.5C 1683.67,179.816 1683.83,189.149 1683,198.5C 1682.5,199 1682,199.5 1681.5,200C 1672.14,203.177 1662.81,205.177 1653.5,206C 1650.99,206.093 1648.83,206.926 1647,208.5C 1645.73,208.384 1644.4,208.051 1643,207.5C 1641.57,209.136 1639.73,210.136 1637.5,210.5C 1636.91,210.291 1636.41,209.957 1636,209.5C 1627.1,211.627 1618.26,213.794 1609.5,216C 1604.9,217.583 1603.07,216.083 1604,211.5C 1608.89,209.774 1612.72,206.774 1615.5,202.5C 1613.17,194.494 1610.83,186.494 1608.5,178.5C 1608.71,177.914 1609.04,177.414 1609.5,177C 1605.58,163.14 1602.42,148.64 1600,133.5C 1598.31,131.24 1597.14,128.74 1596.5,126C 1592.85,125.501 1589.18,125.335 1585.5,125.5C 1585.5,123.833 1585.5,122.167 1585.5,120.5C 1589.14,119.92 1592.81,119.42 1596.5,119C 1604.89,116.059 1613.39,113.559 1622,111.5C 1623.4,112.051 1624.73,112.384 1626,112.5C 1630.33,111.167 1634.67,109.833 1639,108.5C 1639.41,108.957 1639.91,109.291 1640.5,109.5C 1645.81,107.577 1651.15,105.91 1656.5,104.5 Z"/></g>
<g><path style="opacity:1" fill="#000000" d="M 2043.5,115.5 C 2068.19,121.357 2092.36,128.024 2116,135.5C 2117.34,134.786 2118.68,135.12 2120,136.5C 2118.94,143.156 2117.6,149.823 2116,156.5C 2113.05,159.303 2110.55,158.97 2108.5,155.5C 2109.58,150.834 2108.58,146.667 2105.5,143C 2101.72,141.382 2098.38,139.715 2095.5,138C 2087.36,135.809 2079.36,133.809 2071.5,132C 2068.16,142.36 2064.83,152.694 2061.5,163C 2069.76,167.128 2078.6,169.628 2088,170.5C 2089.89,170.204 2091.72,169.704 2093.5,169C 2095.5,166.333 2097.5,163.667 2099.5,161C 2102.12,160.277 2103.79,161.277 2104.5,164C 2101.8,174.468 2098.8,184.802 2095.5,195C 2092.97,195.896 2090.81,195.396 2089,193.5C 2088.8,189.579 2088.3,185.745 2087.5,182C 2084.66,180.43 2081.66,179.263 2078.5,178.5C 2077.81,177.975 2077.31,177.308 2077,176.5C 2076.28,177.059 2075.44,177.392 2074.5,177.5C 2072.13,176.897 2069.96,175.897 2068,174.5C 2067.23,174.645 2066.56,174.978 2066,175.5C 2064.17,174.341 2062.51,173.008 2061,171.5C 2059.5,174.018 2058,176.518 2056.5,179C 2054.77,188.074 2052.44,197.24 2049.5,206.5C 2049.83,207.167 2050.17,207.833 2050.5,208.5C 2053.19,209.557 2055.69,210.89 2058,212.5C 2059,212.167 2060,211.833 2061,211.5C 2069.59,216.127 2079.09,217.627 2089.5,216C 2092.33,213.752 2095.33,211.752 2098.5,210C 2099.89,208.829 2100.73,207.329 2101,205.5C 2104.3,203.95 2106.8,204.783 2108.5,208C 2104.03,214.445 2100.19,221.278 2097,228.5C 2095.98,229.687 2094.81,230.687 2093.5,231.5C 2081.7,227.633 2069.2,223.633 2056,219.5C 2055.23,219.645 2054.56,219.978 2054,220.5C 2053.23,219.151 2052.06,218.318 2050.5,218C 2040.04,215.732 2029.37,213.232 2018.5,210.5C 2018.5,208.5 2018.5,206.5 2018.5,204.5C 2022.77,204.797 2026.93,204.464 2031,203.5C 2033.02,197.741 2035.19,192.074 2037.5,186.5C 2037.29,185.914 2036.96,185.414 2036.5,185C 2039.84,174.965 2043.17,164.965 2046.5,155C 2046.17,154.667 2045.83,154.333 2045.5,154C 2047.8,148.571 2049.96,143.071 2052,137.5C 2052.89,133.848 2053.22,130.182 2053,126.5C 2052.63,125.584 2052.13,124.75 2051.5,124C 2048.56,123.058 2045.72,121.892 2043,120.5C 2043.02,118.893 2043.19,117.226 2043.5,115.5 Z"/></g>
<g><path style="opacity:1" fill="#000000" d="M 1559.5,125.5 C 1561.13,125.825 1562.13,126.825 1562.5,128.5C 1566.61,137.674 1570.61,146.841 1574.5,156C 1572.39,157.518 1570.05,157.851 1567.5,157C 1565.22,153.053 1562.55,149.387 1559.5,146C 1552.82,142.766 1545.82,141.432 1538.5,142C 1528.61,145.595 1525.78,152.095 1530,161.5C 1532.14,164.212 1534.81,166.212 1538,167.5C 1544.26,169.05 1550.59,170.383 1557,171.5C 1562.3,173.868 1567.8,175.702 1573.5,177C 1587.88,183.6 1593.38,194.767 1590,210.5C 1582.16,227.157 1569.82,233.823 1553,230.5C 1549.94,231.914 1546.78,233.081 1543.5,234C 1543.2,235.32 1543.03,236.82 1543,238.5C 1541.19,239.76 1539.35,239.76 1537.5,238.5C 1535.28,231.769 1531.95,225.603 1527.5,220C 1527.83,219.667 1528.17,219.333 1528.5,219C 1526.97,217.05 1525.8,214.883 1525,212.5C 1524.07,207.917 1525.9,206.417 1530.5,208C 1533.27,210.383 1535.44,213.217 1537,216.5C 1537.33,216.167 1537.67,215.833 1538,215.5C 1549.59,227.039 1561.26,227.372 1573,216.5C 1576.38,207.004 1574.05,199.338 1566,193.5C 1560.15,192.231 1554.32,190.898 1548.5,189.5C 1547.35,189.182 1546.52,188.516 1546,187.5C 1533.96,187.724 1523.96,182.724 1516,172.5C 1513.87,164.241 1514.03,156.074 1516.5,148C 1519.18,142.645 1523.52,138.312 1529.5,135C 1537.82,134.045 1546.15,133.211 1554.5,132.5C 1555.04,131.252 1555.71,130.085 1556.5,129C 1556.17,128.667 1555.83,128.333 1555.5,128C 1556.86,127.066 1558.19,126.232 1559.5,125.5 Z"/></g>
<g><path style="opacity:1" fill="#000000" d="M 2155.5,150.5 C 2168.03,150.108 2178.7,154.942 2187.5,165C 2188.5,165.667 2189.5,165.667 2190.5,165C 2193.81,161.568 2196.81,161.902 2199.5,166C 2198.67,166.833 2197.83,167.667 2197,168.5C 2195.3,175.091 2193.96,181.758 2193,188.5C 2191.31,189.325 2191.15,190.325 2192.5,191.5C 2191.09,193.671 2189.26,195.338 2187,196.5C 2186.23,196.355 2185.56,196.022 2185,195.5C 2185.01,187.991 2184.01,180.657 2182,173.5C 2176.93,164.729 2169.43,160.896 2159.5,162C 2155.67,163.167 2153.17,165.667 2152,169.5C 2151.6,175.639 2153.6,180.972 2158,185.5C 2158.67,187.5 2159.33,189.5 2160,191.5C 2170.23,200.539 2177.06,212.206 2180.5,226.5C 2178.58,236.26 2173.58,244.094 2165.5,250C 2162.69,250.911 2159.86,251.744 2157,252.5C 2153.77,251.385 2150.61,251.385 2147.5,252.5C 2137.07,250.283 2128.07,245.45 2120.5,238C 2117.03,238.908 2113.36,239.408 2109.5,239.5C 2111.35,228.114 2113.51,216.78 2116,205.5C 2119.14,204.226 2121.47,205.226 2123,208.5C 2121.23,226.858 2129.07,238.525 2146.5,243.5C 2149.92,241.708 2153.42,240.041 2157,238.5C 2160.19,232.374 2160.86,226.041 2159,219.5C 2153.13,209.949 2146.13,200.615 2138,191.5C 2135.52,183.707 2134.85,175.707 2136,167.5C 2136.25,164.823 2137.25,162.49 2139,160.5C 2144.11,156.211 2149.61,152.878 2155.5,150.5 Z"/></g>
<g><path style="opacity:1" fill="#000000" d="M 1448.5,167.5 C 1450.5,167.5 1452.5,167.5 1454.5,167.5C 1454.65,168.552 1454.48,169.552 1454,170.5C 1450.6,173.393 1447.77,176.726 1445.5,180.5C 1455.51,204.172 1467.01,227.506 1480,250.5C 1481.77,254.313 1482.61,258.313 1482.5,262.5C 1473.4,260.855 1465.07,257.355 1457.5,252C 1448.6,248.551 1439.93,244.551 1431.5,240C 1429.5,239.667 1427.5,239.333 1425.5,239C 1414.87,233.026 1404.04,227.526 1393,222.5C 1395.79,227.374 1397.79,232.708 1399,238.5C 1402.26,243.367 1405.26,248.367 1408,253.5C 1410.44,260.379 1413.44,267.046 1417,273.5C 1418.83,275.333 1420.67,277.167 1422.5,279C 1426.52,279.186 1430.52,279.186 1434.5,279C 1435.52,280.049 1435.68,281.216 1435,282.5C 1433.83,283.667 1432.67,284.833 1431.5,286C 1421.32,290.81 1410.99,295.477 1400.5,300C 1398.83,301.667 1397.17,303.333 1395.5,305C 1387.12,309.545 1379.12,314.712 1371.5,320.5C 1367.72,319.538 1366.72,317.371 1368.5,314C 1370.5,312.667 1372.5,311.333 1374.5,310C 1368.87,303.043 1362.04,297.543 1354,293.5C 1344.92,300.255 1335.59,306.588 1326,312.5C 1326.73,318.073 1327.4,323.74 1328,329.5C 1330.34,335.614 1334.34,336.948 1340,333.5C 1341.83,334 1343,335.167 1343.5,337C 1341.86,338.645 1340.19,340.312 1338.5,342C 1331.68,346.142 1324.85,350.309 1318,354.5C 1316.61,353.387 1315.44,352.053 1314.5,350.5C 1317.6,347.425 1319.27,343.758 1319.5,339.5C 1318.45,331.246 1317.12,323.079 1315.5,315C 1315.83,313.333 1316.17,311.667 1316.5,310C 1316,309.5 1315.5,309 1315,308.5C 1313.33,298.833 1311.67,289.167 1310,279.5C 1308.68,278.32 1308.52,276.82 1309.5,275C 1306.19,264.64 1304.52,254.14 1304.5,243.5C 1309.92,243.541 1314.25,245.708 1317.5,250C 1320.24,250.803 1322.91,251.803 1325.5,253C 1334.46,258.958 1343.12,265.291 1351.5,272C 1354.35,273.591 1357.35,274.924 1360.5,276C 1370.19,283.176 1380.19,289.843 1390.5,296C 1399.11,296.024 1405.78,292.357 1410.5,285C 1409.73,282.393 1409.06,279.727 1408.5,277C 1408.09,276.055 1407.43,275.388 1406.5,275C 1406.83,274.667 1407.17,274.333 1407.5,274C 1401.57,262.425 1395.4,250.925 1389,239.5C 1385.98,229.914 1381.48,221.748 1375.5,215C 1373.86,214.399 1372.2,213.899 1370.5,213.5C 1367.55,214.302 1364.55,214.636 1361.5,214.5C 1361.21,212.712 1361.55,211.045 1362.5,209.5C 1369.7,205.867 1377.04,202.534 1384.5,199.5C 1409.08,210.671 1433.91,222.005 1459,233.5C 1459.5,233.333 1460,233.167 1460.5,233C 1452.84,220.722 1446.51,207.222 1441.5,192.5C 1440.32,192.719 1439.32,192.386 1438.5,191.5C 1435.75,182.751 1430.59,181.085 1423,186.5C 1421.48,185.303 1420.31,183.803 1419.5,182C 1428.96,176.602 1438.63,171.768 1448.5,167.5 Z M 1316.5,267.5 C 1326.39,274.573 1336.39,281.406 1346.5,288C 1339.13,293.679 1331.46,298.846 1323.5,303.5C 1322.02,296.899 1320.85,290.233 1320,283.5C 1319.73,281.671 1318.89,280.171 1317.5,279C 1318.1,277.938 1318.43,276.772 1318.5,275.5C 1317.34,272.989 1316.68,270.322 1316.5,267.5 Z"/></g>
<g><path style="opacity:1" fill="#000000" d="M 2249.5,224.5 C 2256.08,224.416 2262.08,226.249 2267.5,230C 2269.05,231.214 2270.22,232.714 2271,234.5C 2272.55,239.037 2274.05,243.537 2275.5,248C 2273.95,253.855 2270.95,258.855 2266.5,263C 2262.07,265.994 2257.57,268.161 2253,269.5C 2251.67,268.167 2250.33,268.167 2249,269.5C 2244.35,267.45 2239.85,265.117 2235.5,262.5C 2225.91,249.041 2227.91,237.207 2241.5,227C 2244.31,226.218 2246.98,225.384 2249.5,224.5 Z"/></g>
<g><path style="opacity:1" fill="#000000" d="M 2338.5,239.5 C 2348.37,246.54 2358.37,253.374 2368.5,260C 2370.56,262.012 2372.56,264.012 2374.5,266C 2373.39,267.394 2372.05,268.561 2370.5,269.5C 2366.89,266.227 2362.89,265.394 2358.5,267C 2355.08,272.099 2351.24,276.932 2347,281.5C 2346.53,283.246 2345.86,284.913 2345,286.5C 2341.84,290.227 2338.51,293.894 2335,297.5C 2331.33,303.167 2327.67,308.833 2324,314.5C 2318.35,325.492 2319.85,335.325 2328.5,344C 2330.33,344.273 2331.83,345.107 2333,346.5C 2333.33,346.167 2333.67,345.833 2334,345.5C 2334.48,346.448 2334.65,347.448 2334.5,348.5C 2345.5,353.372 2355,351.372 2363,342.5C 2371.95,330.046 2381.11,317.713 2390.5,305.5C 2392.56,301.096 2394.9,296.929 2397.5,293C 2394.89,289.666 2392.56,286.166 2390.5,282.5C 2391.38,280.058 2393.05,279.225 2395.5,280C 2404.33,285.578 2412.33,291.578 2419.5,298C 2420.45,298.483 2421.45,298.649 2422.5,298.5C 2421.81,300.978 2420.31,302.978 2418,304.5C 2414.55,300 2410.38,299 2405.5,301.5C 2394.16,315.529 2383.5,330.195 2373.5,345.5C 2369.49,349.012 2365.66,352.679 2362,356.5C 2361.67,356.167 2361.33,355.833 2361,355.5C 2357.59,357.704 2353.93,359.37 2350,360.5C 2342.54,360.499 2335.04,358.666 2327.5,355C 2322.3,350.832 2317.13,346.665 2312,342.5C 2310.83,338.663 2308.83,335.329 2306,332.5C 2305.33,325.5 2305.33,318.5 2306,311.5C 2307.76,310.531 2308.26,309.364 2307.5,308C 2314.82,295.844 2322.99,284.344 2332,273.5C 2336.2,266.646 2340.36,259.813 2344.5,253C 2341.65,250.318 2338.98,247.484 2336.5,244.5C 2337.95,243.15 2338.62,241.484 2338.5,239.5 Z"/></g>
<g><path style="opacity:1" fill="#000000" d="M 1250.5,282.5 C 1252.82,282.662 1254.49,283.828 1255.5,286C 1253.69,287.806 1251.86,289.64 1250,291.5C 1249.33,293.833 1249.33,296.167 1250,298.5C 1253.08,301.908 1255.75,305.575 1258,309.5C 1271.47,323.786 1284.3,338.453 1296.5,353.5C 1298.79,354.626 1300.96,355.959 1303,357.5C 1306.17,355.677 1309.17,353.677 1312,351.5C 1313.54,352.705 1314.7,354.205 1315.5,356C 1304.68,364.922 1294.01,374.089 1283.5,383.5C 1282.18,382.209 1280.84,380.876 1279.5,379.5C 1282.53,376.969 1284.53,373.803 1285.5,370C 1283.55,364.263 1280.05,359.763 1275,356.5C 1272.21,353.55 1270.05,350.217 1268.5,346.5C 1266.81,344.973 1264.97,343.64 1263,342.5C 1257.82,335.502 1252.15,328.835 1246,322.5C 1247.73,335.156 1251.06,347.489 1256,359.5C 1256.76,365.106 1258.26,370.44 1260.5,375.5C 1260.29,376.086 1259.96,376.586 1259.5,377C 1262.2,382.194 1264.36,387.36 1266,392.5C 1266.5,395.146 1266.66,397.813 1266.5,400.5C 1257.74,397.573 1249.08,394.407 1240.5,391C 1226.36,383.755 1212.03,376.755 1197.5,370C 1196.5,369.333 1195.5,369.333 1194.5,370C 1195.19,371.067 1195.69,372.234 1196,373.5C 1206.2,385.994 1216.7,398.161 1227.5,410C 1230.1,411.471 1232.77,412.637 1235.5,413.5C 1238.59,412.79 1241.59,411.79 1244.5,410.5C 1246.21,410.703 1247.54,411.536 1248.5,413C 1239.61,420.807 1230.94,428.807 1222.5,437C 1219.88,437.723 1218.21,436.723 1217.5,434C 1219.45,431.268 1221.29,428.435 1223,425.5C 1223.27,422.351 1222.61,419.351 1221,416.5C 1205.48,398.752 1189.98,381.085 1174.5,363.5C 1172.23,362.456 1169.9,362.289 1167.5,363C 1165.3,364.697 1162.97,366.197 1160.5,367.5C 1158.55,365.956 1158.05,363.956 1159,361.5C 1161.93,358.56 1165.09,356.06 1168.5,354C 1171.17,351.333 1173.83,348.667 1176.5,346C 1180.11,344.247 1183.78,344.247 1187.5,346C 1192.81,348.101 1197.81,350.768 1202.5,354C 1206.76,355.631 1211.09,356.964 1215.5,358C 1224.73,364.193 1234.73,368.86 1245.5,372C 1248.08,375.025 1249.41,374.692 1249.5,371C 1248.33,370.5 1247.5,369.667 1247,368.5C 1245.23,359.295 1242.39,350.128 1238.5,341C 1238.83,340.667 1239.17,340.333 1239.5,340C 1237.16,332.984 1234.82,325.984 1232.5,319C 1232.83,318 1233.17,317 1233.5,316C 1232.3,315.097 1231.47,313.931 1231,312.5C 1230.4,308.943 1229.57,305.443 1228.5,302C 1235.07,294.591 1242.41,288.091 1250.5,282.5 Z"/></g>
<g><path style="opacity:1" fill="#000000" d="M 2429.5,322.5 C 2443.11,319.361 2454.28,323.027 2463,333.5C 2464.94,339.073 2468.11,343.74 2472.5,347.5C 2475.92,344.377 2478.25,345.044 2479.5,349.5C 2478.18,352.13 2476.85,354.797 2475.5,357.5C 2470.21,363.634 2465.21,369.968 2460.5,376.5C 2456.64,371.544 2456.97,366.71 2461.5,362C 2462.83,357.333 2462.83,352.667 2461.5,348C 2458.54,342.721 2454.87,338.054 2450.5,334C 2439.97,331.704 2433.97,335.871 2432.5,346.5C 2435.61,359.422 2438.77,372.422 2442,385.5C 2444.14,398.498 2439.64,408.331 2428.5,415C 2426.57,415.251 2424.73,415.751 2423,416.5C 2417.86,415.554 2412.86,415.554 2408,416.5C 2403.52,415.179 2399.36,413.179 2395.5,410.5C 2389.01,403.91 2384.01,396.743 2380.5,389C 2379.5,388.333 2378.5,388.333 2377.5,389C 2374.04,392.421 2372.04,391.587 2371.5,386.5C 2372.94,381.979 2375.6,378.479 2379.5,376C 2379.17,375.667 2378.83,375.333 2378.5,375C 2380.66,373.355 2382,371.188 2382.5,368.5C 2385.57,365.433 2388.24,362.1 2390.5,358.5C 2392.01,360.322 2393.34,362.322 2394.5,364.5C 2393.62,367.012 2392.29,369.179 2390.5,371C 2391.2,373.709 2391.53,376.376 2391.5,379C 2390.43,379.739 2389.76,380.739 2389.5,382C 2391.46,384.149 2391.79,386.482 2390.5,389C 2392.41,390.701 2393.58,392.867 2394,395.5C 2399.16,404.292 2406.66,406.959 2416.5,403.5C 2420.97,399.888 2423.31,395.221 2423.5,389.5C 2422.65,379.719 2420.32,370.386 2416.5,361.5C 2415.47,353.851 2415.31,346.185 2416,338.5C 2416.25,335.823 2417.25,333.49 2419,331.5C 2422.69,328.635 2426.19,325.635 2429.5,322.5 Z"/></g>
<g><path style="opacity:1" fill="#000000" d="M 1147.5,374.5 C 1149.82,374.818 1151.15,376.152 1151.5,378.5C 1147.83,382.114 1146.67,386.447 1148,391.5C 1160.5,402.669 1173,413.836 1185.5,425C 1200.54,438.021 1203.71,453.521 1195,471.5C 1190.15,476.048 1185.65,480.881 1181.5,486C 1179.16,486.837 1177.16,488.171 1175.5,490C 1172.97,490.516 1170.8,491.683 1169,493.5C 1164.48,494.358 1159.64,494.358 1154.5,493.5C 1149.41,491.36 1144.41,489.027 1139.5,486.5C 1133.79,481.956 1128.62,476.956 1124,471.5C 1123.67,471.833 1123.33,472.167 1123,472.5C 1119.82,469.657 1116.99,466.49 1114.5,463C 1108.48,457.65 1102.15,452.65 1095.5,448C 1091.04,448.309 1087.21,450.143 1084,453.5C 1081.95,452.362 1081.29,450.695 1082,448.5C 1084.19,443.763 1087.53,440.096 1092,437.5C 1094.58,432.582 1098.25,428.582 1103,425.5C 1104.05,422.039 1106.05,419.373 1109,417.5C 1111.05,418.098 1112.21,419.431 1112.5,421.5C 1110.38,424.913 1108.38,428.413 1106.5,432C 1108.75,436.076 1112.08,438.91 1116.5,440.5C 1117.92,443.426 1119.92,445.926 1122.5,448C 1133.01,455.825 1143.01,464.491 1152.5,474C 1157.35,476.289 1162.35,478.122 1167.5,479.5C 1174.94,477.369 1181.11,473.369 1186,467.5C 1188.2,462.808 1190.03,458.308 1191.5,454C 1191.11,449.758 1189.61,445.258 1187,440.5C 1182.69,436.355 1178.52,432.022 1174.5,427.5C 1169.45,424.623 1165.11,420.789 1161.5,416C 1160.5,415.667 1159.5,415.333 1158.5,415C 1152.79,407.784 1145.79,402.284 1137.5,398.5C 1133.21,400.166 1129.21,402.166 1125.5,404.5C 1125.58,403.07 1125.25,401.736 1124.5,400.5C 1131.88,391.46 1139.55,382.793 1147.5,374.5 Z"/></g>
<g><path style="opacity:1" fill="#000000" d="M 2529.5,402.5 C 2530.82,402.33 2531.99,402.663 2533,403.5C 2533.67,405.833 2533.67,408.167 2533,410.5C 2523.19,430.793 2513.86,451.459 2505,472.5C 2504.5,473.667 2503.67,474.5 2502.5,475C 2503.26,476.364 2502.76,477.531 2501,478.5C 2499.17,484.985 2496.67,491.152 2493.5,497C 2496.27,500.14 2496.94,503.64 2495.5,507.5C 2494.23,508.428 2492.9,508.595 2491.5,508C 2488.76,502.343 2484.76,497.843 2479.5,494.5C 2475.55,489.507 2471.55,484.507 2467.5,479.5C 2468.03,477.77 2469.03,476.436 2470.5,475.5C 2473.47,476.81 2475.81,478.81 2477.5,481.5C 2482.88,478.294 2486.05,473.627 2487,467.5C 2488.63,465.083 2490.13,462.583 2491.5,460C 2489.32,458.152 2487.49,455.985 2486,453.5C 2482.7,451.205 2479.7,448.538 2477,445.5C 2473.89,441.387 2470.73,437.387 2467.5,433.5C 2460.78,436.601 2454.11,439.601 2447.5,442.5C 2447.01,443.446 2446.68,444.446 2446.5,445.5C 2448.64,448.112 2449.97,451.112 2450.5,454.5C 2445.18,455.985 2441.68,453.985 2440,448.5C 2435.68,444.345 2431.51,440.012 2427.5,435.5C 2425.79,429.371 2427.46,428.205 2432.5,432C 2439.7,433.153 2446.36,431.819 2452.5,428C 2458.96,427.955 2464.8,426.122 2470,422.5C 2470.77,422.645 2471.44,422.978 2472,423.5C 2474.8,421.114 2477.96,419.281 2481.5,418C 2497.75,413.304 2513.75,408.137 2529.5,402.5 Z M 2510.5,418.5 C 2510.22,422.944 2508.39,426.611 2505,429.5C 2501.12,436.54 2497.95,443.873 2495.5,451.5C 2489.66,445.211 2483.99,438.878 2478.5,432.5C 2477.42,431.635 2477.25,430.635 2478,429.5C 2488.85,426.825 2499.69,423.158 2510.5,418.5 Z"/></g>
<g><path style="opacity:1" fill="#000000" d="M 1848.5,1438.5 C 1848.17,1437.17 1847.83,1437.17 1847.5,1438.5C 1845.66,1437.9 1843.83,1437.56 1842,1437.5C 1840.21,1439.51 1838.88,1439.51 1838,1437.5C 1810.35,1437.65 1782.02,1437.65 1753,1437.5C 1747.3,1438.93 1741.46,1439.76 1735.5,1440C 1734.45,1441.54 1733.12,1441.71 1731.5,1440.5C 1722.31,1442.55 1713.31,1445.38 1704.5,1449C 1697.65,1455.91 1690.65,1462.57 1683.5,1469C 1680.17,1471.78 1676.33,1473.62 1672,1474.5C 1668.77,1472.73 1667.93,1470.23 1669.5,1467C 1669,1466.5 1668.5,1466 1668,1465.5C 1667.67,1456.32 1667.17,1447.16 1666.5,1438C 1666.16,1421.8 1669,1406.63 1675,1392.5C 1678.17,1388.11 1680.67,1383.44 1682.5,1378.5C 1683.55,1378.65 1684.55,1378.48 1685.5,1378C 1691.53,1369.97 1698.87,1363.3 1707.5,1358C 1729.95,1348.45 1752.45,1343.28 1775,1342.5C 1782.81,1342.89 1790.47,1342.89 1798,1342.5C 1822.15,1343.35 1846.15,1344.68 1870,1346.5C 1881.53,1346.11 1893.19,1346.11 1905,1346.5C 1905.5,1346 1906,1345.5 1906.5,1345C 1917.11,1344.88 1927.61,1344.04 1938,1342.5C 1939.12,1342.67 1940.28,1343 1941.5,1343.5C 1947.43,1341.48 1953.43,1339.65 1959.5,1338C 1962.55,1335.81 1965.89,1334.14 1969.5,1333C 1971,1330.83 1972.83,1329 1975,1327.5C 1982.02,1313 1986.02,1297.66 1987,1281.5C 1987.69,1280.97 1988.19,1280.31 1988.5,1279.5C 1988.37,1277.58 1988.04,1275.74 1987.5,1274C 1988,1273.5 1988.5,1273 1989,1272.5C 1990.07,1264.18 1991.07,1255.84 1992,1247.5C 1992.69,1246.97 1993.19,1246.31 1993.5,1245.5C 1992.98,1242.94 1992.65,1240.44 1992.5,1238C 1993.13,1237.25 1993.63,1236.42 1994,1235.5C 1995.04,1227.87 1995.71,1220.2 1996,1212.5C 1999.45,1188.47 2003.12,1164.47 2007,1140.5C 2010.36,1124.42 2014.53,1108.26 2019.5,1092C 2019.04,1091.59 2018.71,1091.09 2018.5,1090.5C 2024.1,1077.57 2028.93,1063.91 2033,1049.5C 2038.39,1038.48 2044.23,1028.31 2050.5,1019C 2052.97,1016.56 2054.8,1013.73 2056,1010.5C 2062.28,1002.34 2069.28,994.677 2077,987.5C 2081.89,981.95 2086.72,976.283 2091.5,970.5C 2098.13,964.039 2104.96,957.706 2112,951.5C 2114.15,948.315 2116.98,945.815 2120.5,944C 2123.12,941.261 2125.62,938.427 2128,935.5C 2128.33,935.833 2128.67,936.167 2129,936.5C 2136.18,928.332 2144.34,921.165 2153.5,915C 2160.35,908.12 2167.69,902.12 2175.5,897C 2176.83,895.333 2178.17,893.667 2179.5,892C 2210.67,867.516 2241.34,842.183 2271.5,816C 2272.83,815.667 2274.17,815.333 2275.5,815C 2276.64,813.027 2277.97,811.193 2279.5,809.5C 2286.78,804.554 2293.45,798.887 2299.5,792.5C 2300.73,791.719 2302.06,791.219 2303.5,791C 2306.69,787.978 2309.69,784.811 2312.5,781.5C 2318.01,778.019 2323.01,773.852 2327.5,769C 2331.44,767.39 2334.44,764.723 2336.5,761C 2339.77,758.865 2343.1,757.031 2346.5,755.5C 2346.33,754.178 2346.66,753.011 2347.5,752C 2351.37,749.586 2355.03,746.919 2358.5,744C 2371.98,731.166 2385.98,719.166 2400.5,708C 2412.63,695.589 2425.63,684.089 2439.5,673.5C 2450.67,662.476 2461.67,651.976 2472.5,642C 2482.5,634.415 2491.5,625.915 2499.5,616.5C 2504.56,614.273 2508.56,610.773 2511.5,606C 2521.84,596.844 2532.51,588.177 2543.5,580C 2551.36,572.362 2559.36,564.696 2567.5,557C 2583.35,543.359 2597.85,528.526 2611,512.5C 2611.48,511.552 2611.65,510.552 2611.5,509.5C 2614.35,509.191 2615.85,507.525 2616,504.5C 2618.25,502.377 2620.25,500.044 2622,497.5C 2628.19,487.639 2633.52,478.306 2638,469.5C 2642.01,458.157 2646.01,446.823 2650,435.5C 2651.09,425.268 2652.93,415.268 2655.5,405.5C 2659.53,404.334 2663.53,404.501 2667.5,406C 2684.09,414.268 2697.93,425.768 2709,440.5C 2713.15,448.475 2716.48,456.808 2719,465.5C 2722.31,482.158 2722.31,498.825 2719,515.5C 2717.51,516.253 2717.35,517.086 2718.5,518C 2715.32,526.211 2712.15,534.377 2709,542.5C 2708.17,544 2707,545.167 2705.5,546C 2705.83,546.333 2706.17,546.667 2706.5,547C 2705.58,547.374 2704.75,547.874 2704,548.5C 2697.82,558.377 2691.15,568.043 2684,577.5C 2671.83,588.333 2660.33,599.833 2649.5,612C 2638.91,619.92 2628.91,628.586 2619.5,638C 2595.98,656.173 2573.65,675.84 2552.5,697C 2547.27,700.224 2542.6,704.224 2538.5,709C 2501.32,741.123 2463.98,774.123 2426.5,808C 2423.11,811.053 2419.45,813.72 2415.5,816C 2404.92,824.906 2394.59,834.24 2384.5,844C 2383.55,844.483 2382.55,844.649 2381.5,844.5C 2380.57,848.759 2377.91,851.426 2373.5,852.5C 2366.02,859.092 2358.68,865.925 2351.5,873C 2335.35,886.121 2319.35,899.788 2303.5,914C 2302.5,914.333 2301.5,914.667 2300.5,915C 2299.71,918.79 2297.38,920.79 2293.5,921C 2272.03,940.674 2250.36,960.007 2228.5,979C 2227.5,979.333 2226.5,979.667 2225.5,980C 2220.39,985.383 2214.72,990.05 2208.5,994C 2206.09,998.08 2202.76,1001.08 2198.5,1003C 2187.84,1011.94 2177.18,1020.94 2166.5,1030C 2149.11,1046.05 2135.61,1064.89 2126,1086.5C 2108.96,1144.23 2098.3,1203.56 2094,1264.5C 2092.01,1276.41 2090.34,1288.41 2089,1300.5C 2088.17,1304.67 2087.33,1308.83 2086.5,1313C 2086.25,1314.33 2085.58,1315.33 2084.5,1316C 2084.96,1316.41 2085.29,1316.91 2085.5,1317.5C 2083.15,1322.61 2080.65,1327.61 2078,1332.5C 2077.65,1335.58 2076.99,1338.58 2076,1341.5C 2071.5,1347.82 2067.5,1354.49 2064,1361.5C 2056.92,1370.62 2049.59,1379.62 2042,1388.5C 2032.51,1396.98 2022.67,1405.15 2012.5,1413C 2010.78,1413.35 2009.12,1413.85 2007.5,1414.5C 2002.8,1418.18 1997.8,1421.35 1992.5,1424C 1982.65,1427.24 1972.82,1430.41 1963,1433.5C 1962.59,1433.04 1962.09,1432.71 1961.5,1432.5C 1955.73,1434.3 1949.89,1435.97 1944,1437.5C 1942.94,1436.9 1941.77,1436.57 1940.5,1436.5C 1934.47,1437.07 1928.47,1437.74 1922.5,1438.5C 1897.2,1439.59 1872.53,1439.59 1848.5,1438.5 Z"/></g>
<g><path style="opacity:1" fill="#000000" d="M 1070.5,461.5 C 1072.9,461.695 1074.57,462.862 1075.5,465C 1073.62,467.759 1072.29,470.759 1071.5,474C 1077.05,480.447 1083.72,485.447 1091.5,489C 1093.17,491.333 1095.17,493.333 1097.5,495C 1105.37,500.183 1113.37,505.183 1121.5,510C 1126.88,514.892 1132.88,518.725 1139.5,521.5C 1142.5,518.833 1145.5,516.167 1148.5,513.5C 1151.5,514.758 1152.5,516.758 1151.5,519.5C 1145.6,526.28 1140.44,533.613 1136,541.5C 1132.99,544.866 1129.99,548.2 1127,551.5C 1125.27,551.266 1124.43,550.266 1124.5,548.5C 1125.54,545.2 1126.88,542.033 1128.5,539C 1118.92,530.923 1108.92,523.423 1098.5,516.5C 1090.79,527.197 1083.13,537.864 1075.5,548.5C 1076.31,549.814 1077.31,550.981 1078.5,552C 1087.19,556.687 1095.36,562.187 1103,568.5C 1104.32,568.201 1105.82,568.034 1107.5,568C 1110.05,565.937 1112.72,564.103 1115.5,562.5C 1117.27,562.434 1118.27,563.268 1118.5,565C 1115.28,571.58 1111.12,577.414 1106,582.5C 1103.37,587.74 1100.37,592.74 1097,597.5C 1094.14,600.326 1091.97,599.826 1090.5,596C 1092.65,593.595 1093.98,590.761 1094.5,587.5C 1094,586.5 1093.5,585.5 1093,584.5C 1072.64,569.112 1051.81,554.612 1030.5,541C 1026.24,539.461 1023.57,540.794 1022.5,545C 1019.39,547.292 1016.73,546.959 1014.5,544C 1022.32,533.507 1029.49,522.674 1036,511.5C 1039.19,508.589 1041.69,509.089 1043.5,513C 1041.48,516.217 1039.81,519.217 1038.5,522C 1040.05,523.214 1041.22,524.714 1042,526.5C 1050.75,531.9 1059.25,537.566 1067.5,543.5C 1072.05,536.776 1076.88,530.11 1082,523.5C 1084.77,518.918 1087.27,514.251 1089.5,509.5C 1087.17,508.833 1084.83,508.167 1082.5,507.5C 1082.67,506.178 1082.34,505.011 1081.5,504C 1074.78,500.094 1067.95,496.261 1061,492.5C 1058.41,494.161 1055.91,495.994 1053.5,498C 1051.04,498.946 1049.04,498.446 1047.5,496.5C 1054.99,484.693 1062.65,473.026 1070.5,461.5 Z"/></g>
<g><path style="opacity:1" fill="#000000" d="M 1013.5,611.5 C 1016.76,611.014 1019.42,612.014 1021.5,614.5C 1020.31,615.519 1019.31,616.686 1018.5,618C 1019.83,619.333 1019.83,620.667 1018.5,622C 1020.82,625.297 1022.65,628.797 1024,632.5C 1030.57,638.62 1035.4,645.954 1038.5,654.5C 1045.93,654.937 1052.1,652.271 1057,646.5C 1060.48,640.347 1060.31,634.347 1056.5,628.5C 1059.07,625.079 1061.9,625.079 1065,628.5C 1072.68,640.126 1072.18,651.293 1063.5,662C 1058.57,666.051 1053.07,669.218 1047,671.5C 1047.1,676.819 1047.6,682.153 1048.5,687.5C 1048.05,695.706 1045.89,703.373 1042,710.5C 1039.59,713.173 1037.09,715.84 1034.5,718.5C 1021.79,724.191 1010.63,721.858 1001,711.5C 997.393,704.687 994.56,697.52 992.5,690C 992.99,686.511 992.99,682.844 992.5,679C 989.776,678.73 987.109,678.23 984.5,677.5C 983.033,677.723 981.533,678.056 980,678.5C 976.051,676.29 971.884,674.457 967.5,673C 954.42,659.943 954.42,646.943 967.5,634C 979,628.579 988.833,631.079 997,641.5C 997.156,645.134 998.156,648.467 1000,651.5C 1000.5,655.152 1000.67,658.818 1000.5,662.5C 1009.94,662.38 1019.27,661.38 1028.5,659.5C 1029.91,659.132 1030.91,658.299 1031.5,657C 1027.2,651.357 1022.86,645.691 1018.5,640C 1015.97,638.578 1013.3,638.245 1010.5,639C 1008.96,640.714 1007.29,642.214 1005.5,643.5C 1002.51,643.02 1001.34,641.353 1002,638.5C 1006.95,629.945 1010.78,620.945 1013.5,611.5 Z M 972.5,641.5 C 982.292,640.588 988.126,644.588 990,653.5C 990.953,656.432 991.453,659.432 991.5,662.5C 982.435,663.946 974.601,661.613 968,655.5C 965.6,649.536 967.1,644.869 972.5,641.5 Z M 1035.5,674.5 C 1037.12,674.36 1038.29,675.027 1039,676.5C 1040.51,684.803 1039.18,692.136 1035,698.5C 1029.73,703.245 1023.56,704.745 1016.5,703C 1006.3,698.119 1000.97,689.952 1000.5,678.5C 1007.07,677.609 1013.57,677.609 1020,678.5C 1025.15,676.708 1030.32,675.375 1035.5,674.5 Z"/></g>
<g><path style="opacity:1" fill="#000000" d="M 2725.5,631.5 C 2755.2,637.693 2772.53,655.193 2777.5,684C 2778,684.5 2778.5,685 2779,685.5C 2779.17,689.5 2779.33,693.5 2779.5,697.5C 2778.97,703.8 2778.47,709.8 2778,715.5C 2775.81,725.219 2772.48,734.552 2768,743.5C 2764.67,751.493 2760.34,758.826 2755,765.5C 2753.62,767.213 2751.96,768.547 2750,769.5C 2747.79,772.299 2745.79,775.299 2744,778.5C 2739.39,782.365 2735.22,786.699 2731.5,791.5C 2726.76,793.694 2723.1,797.028 2720.5,801.5C 2703.26,815.908 2685.76,830.241 2668,844.5C 2667.67,844.167 2667.33,843.833 2667,843.5C 2663.5,848.546 2659,852.379 2653.5,855C 2651.42,858.75 2648.42,861.416 2644.5,863C 2637.08,870.018 2629.75,877.018 2622.5,884C 2572.19,927.649 2522.52,971.982 2473.5,1017C 2472.5,1017.33 2471.5,1017.67 2470.5,1018C 2467.48,1021.35 2464.15,1024.35 2460.5,1027C 2457.13,1030.03 2454.13,1033.37 2451.5,1037C 2450.17,1037.67 2448.83,1038.33 2447.5,1039C 2438.4,1048.11 2428.73,1056.44 2418.5,1064C 2399.69,1082.48 2380.03,1099.82 2359.5,1116C 2354.68,1120.26 2350.02,1124.76 2345.5,1129.5C 2342.8,1131.85 2339.8,1133.68 2336.5,1135C 2324.79,1146.37 2312.62,1157.53 2300,1168.5C 2297.08,1173.42 2293.42,1177.76 2289,1181.5C 2285.79,1187.72 2282.13,1193.72 2278,1199.5C 2273.71,1210.1 2269.71,1220.44 2266,1230.5C 2259.73,1255.12 2255.06,1280.12 2252,1305.5C 2251.04,1312.16 2251.54,1318.66 2253.5,1325C 2253.17,1325.33 2252.83,1325.67 2252.5,1326C 2258.67,1332.51 2264.5,1339.34 2270,1346.5C 2271.54,1353.08 2271.88,1359.75 2271,1366.5C 2269.79,1373.77 2267.29,1381.27 2263.5,1389C 2254.8,1399.7 2246.13,1410.36 2237.5,1421C 2237.83,1421.33 2238.17,1421.67 2238.5,1422C 2232.69,1430.6 2234.36,1437.6 2243.5,1443C 2252.17,1443.33 2260.83,1443.67 2269.5,1444C 2275.97,1446.14 2279.97,1450.47 2281.5,1457C 2279.27,1463.6 2278.44,1470.44 2279,1477.5C 2279.69,1480.2 2281.19,1482.36 2283.5,1484C 2289.85,1486.44 2296.35,1488.27 2303,1489.5C 2304.33,1488.17 2305.67,1488.17 2307,1489.5C 2308.44,1487.99 2309.94,1487.65 2311.5,1488.5C 2312.77,1490.69 2312.77,1492.86 2311.5,1495C 2306.65,1495.78 2302.32,1497.61 2298.5,1500.5C 2302.66,1504.51 2306.33,1509.01 2309.5,1514C 2308.35,1514.91 2308.51,1515.75 2310,1516.5C 2310.76,1527.35 2311.59,1538.18 2312.5,1549C 2314.26,1553.34 2316.42,1557.51 2319,1561.5C 2326.55,1568.36 2335.05,1572.53 2344.5,1574C 2358.83,1574.67 2373.17,1574.67 2387.5,1574C 2389.43,1573.75 2391.27,1573.25 2393,1572.5C 2394.78,1573.48 2396.45,1573.15 2398,1571.5C 2401.87,1571.33 2405.53,1571.66 2409,1572.5C 2409.85,1570.88 2410.85,1570.54 2412,1571.5C 2414.12,1570.77 2416.29,1570.11 2418.5,1569.5C 2432.44,1569.45 2446.77,1569.61 2461.5,1570C 2496.41,1576.52 2510.74,1597.52 2504.5,1633C 2501.94,1640.61 2499.11,1648.44 2496,1656.5C 2493.58,1659.25 2491.58,1662.25 2490,1665.5C 2487.24,1666.5 2485.91,1668.5 2486,1671.5C 2468.84,1685.99 2450.34,1698.49 2430.5,1709C 2420.81,1715.18 2411.48,1721.84 2402.5,1729C 2400.28,1730.28 2397.95,1731.28 2395.5,1732C 2391.39,1736.78 2387.23,1741.62 2383,1746.5C 2381.42,1751.91 2379.09,1756.91 2376,1761.5C 2373.6,1772.04 2372.93,1782.71 2374,1793.5C 2375.93,1802.25 2378.93,1810.59 2383,1818.5C 2388.48,1823.65 2393.64,1829.15 2398.5,1835C 2405.37,1838.94 2412.37,1842.6 2419.5,1846C 2443.16,1851.75 2465.49,1848.75 2486.5,1837C 2488.13,1836.51 2489.8,1836.34 2491.5,1836.5C 2488.97,1842.92 2486.13,1849.26 2483,1855.5C 2469.11,1872.97 2451.95,1885.3 2431.5,1892.5C 2430.65,1893.52 2429.65,1894.36 2428.5,1895C 2419.56,1897.82 2410.56,1900.48 2401.5,1903C 2399.56,1903.74 2397.73,1903.58 2396,1902.5C 2394.33,1903.5 2392.67,1904.5 2391,1905.5C 2376,1906.77 2361,1906.77 2346,1905.5C 2342.67,1904.17 2339.33,1902.83 2336,1901.5C 2335.67,1901.83 2335.33,1902.17 2335,1902.5C 2327.79,1899.81 2320.62,1896.98 2313.5,1894C 2306.04,1888.21 2298.87,1882.04 2292,1875.5C 2275.12,1850.11 2272.12,1822.78 2283,1793.5C 2286.22,1789.27 2288.56,1784.6 2290,1779.5C 2307.16,1759 2327.33,1742.17 2350.5,1729C 2355.71,1723.59 2361.71,1719.26 2368.5,1716C 2376.64,1709.19 2384.14,1701.69 2391,1693.5C 2394.17,1685.96 2396.84,1678.63 2399,1671.5C 2399.67,1667.83 2399.67,1664.17 2399,1660.5C 2397.32,1653.65 2394.82,1646.65 2391.5,1639.5C 2387.63,1635.13 2383.63,1630.96 2379.5,1627C 2372.23,1623.41 2364.9,1619.91 2357.5,1616.5C 2355.52,1615.87 2353.36,1615.87 2351,1616.5C 2349.51,1615 2347.68,1614.16 2345.5,1614C 2332.5,1613.33 2319.5,1613.33 2306.5,1614C 2303.15,1614.25 2299.98,1615.08 2297,1616.5C 2292.5,1615.22 2288,1615.88 2283.5,1618.5C 2278.94,1618.11 2273.77,1618.11 2268,1618.5C 2265.28,1619.35 2262.62,1620.35 2260,1621.5C 2254.02,1619.77 2248.19,1618.6 2242.5,1618C 2239.63,1616.07 2236.63,1614.4 2233.5,1613C 2223.78,1603.59 2220.61,1593.09 2224,1581.5C 2224.33,1577.83 2224.67,1574.17 2225,1570.5C 2226.76,1569.58 2226.92,1568.41 2225.5,1567C 2225.95,1565.71 2226.62,1564.55 2227.5,1563.5C 2225.89,1559.79 2223.89,1556.29 2221.5,1553C 2215.63,1548.56 2209.29,1544.9 2202.5,1542C 2198.72,1539.05 2197.56,1535.21 2199,1530.5C 2200.92,1527.16 2203.42,1524.32 2206.5,1522C 2199.91,1520.77 2193.58,1518.77 2187.5,1516C 2185.62,1514.46 2184.12,1512.62 2183,1510.5C 2183.19,1505.4 2184.19,1500.4 2186,1495.5C 2190.64,1489.9 2193.31,1483.56 2194,1476.5C 2191.73,1475.04 2189.23,1474.21 2186.5,1474C 2173.46,1473.85 2160.46,1473.19 2147.5,1472C 2144.96,1469.13 2142.13,1466.63 2139,1464.5C 2135.76,1456.21 2135.76,1447.87 2139,1439.5C 2148.19,1423.98 2158.52,1409.32 2170,1395.5C 2173.85,1389.14 2177.18,1382.48 2180,1375.5C 2181.38,1366.03 2178.88,1357.86 2172.5,1351C 2172.83,1350.67 2173.17,1350.33 2173.5,1350C 2168.65,1344.12 2165.48,1337.29 2164,1329.5C 2163.33,1319.5 2163.33,1309.5 2164,1299.5C 2167.61,1284.62 2169.94,1269.62 2171,1254.5C 2171.5,1254 2172,1253.5 2172.5,1253C 2171.41,1250.94 2171.24,1248.77 2172,1246.5C 2176.7,1227.99 2181.04,1208.99 2185,1189.5C 2188.52,1179.94 2191.85,1170.27 2195,1160.5C 2198.05,1155.55 2201.22,1150.72 2204.5,1146C 2204.17,1145.67 2203.83,1145.33 2203.5,1145C 2209.89,1137.09 2216.56,1129.26 2223.5,1121.5C 2239.31,1108.53 2255.31,1095.7 2271.5,1083C 2274.21,1080.63 2276.54,1077.96 2278.5,1075C 2281.41,1073.76 2284.08,1072.09 2286.5,1070C 2287.17,1068.67 2287.83,1067.33 2288.5,1066C 2298.48,1058.64 2307.81,1050.64 2316.5,1042C 2333.8,1027.71 2350.8,1013.04 2367.5,998C 2370.31,993.258 2374.31,989.925 2379.5,988C 2380.8,985.138 2382.63,982.638 2385,980.5C 2385.33,980.833 2385.67,981.167 2386,981.5C 2398.75,970.425 2411.25,958.925 2423.5,947C 2439.77,933.737 2455.77,920.071 2471.5,906C 2474.07,903.521 2476.4,900.854 2478.5,898C 2479.83,897.667 2481.17,897.333 2482.5,897C 2485.07,894.521 2487.4,891.854 2489.5,889C 2498.44,881.734 2507.1,874.067 2515.5,866C 2517.53,864.121 2519.86,862.954 2522.5,862.5C 2522.33,861.178 2522.66,860.011 2523.5,859C 2549.52,837.633 2574.86,815.633 2599.5,793C 2602.71,791.16 2605.71,789.16 2608.5,787C 2620.26,776.227 2632.26,765.893 2644.5,756C 2657.78,742.386 2671.45,729.053 2685.5,716C 2685.17,715.667 2684.83,715.333 2684.5,715C 2706.04,692.63 2718.71,665.797 2722.5,634.5C 2723.34,633.265 2724.34,632.265 2725.5,631.5 Z"/></g>
<g><path style="opacity:1" fill="#000000" d="M 924.5,740.5 C 926.889,741.231 928.223,742.898 928.5,745.5C 928.21,747.044 927.544,748.377 926.5,749.5C 927.833,751.5 929.167,753.5 930.5,755.5C 948.055,761.65 966.055,766.483 984.5,770C 989.808,771.657 994.975,773.49 1000,775.5C 1002,774.167 1004,774.167 1006,775.5C 1008.94,772.74 1010.77,769.406 1011.5,765.5C 1014.93,764.755 1016.6,766.089 1016.5,769.5C 1013.71,782.503 1010.38,795.17 1006.5,807.5C 1004.83,807.5 1003.17,807.5 1001.5,807.5C 1001.67,803.486 1001.5,799.486 1001,795.5C 1000.17,794.667 999.333,793.833 998.5,793C 987.744,789.61 976.744,786.777 965.5,784.5C 965.663,786.857 965.497,789.19 965,791.5C 962.126,802.197 958.626,812.697 954.5,823C 966.643,825.486 977.977,828.32 988.5,831.5C 990.374,831.61 991.874,830.944 993,829.5C 994.07,826.758 995.57,824.258 997.5,822C 999.607,821.146 1000.94,821.812 1001.5,824C 997.914,836.357 994.747,848.857 992,861.5C 991,862.167 990,862.833 989,863.5C 987.989,862.663 986.822,862.33 985.5,862.5C 986.515,858.469 986.515,854.469 985.5,850.5C 964.993,843.496 944.16,837.829 923,833.5C 918.152,829.983 912.652,828.65 906.5,829.5C 905.138,832.731 903.471,835.898 901.5,839C 900.216,839.684 899.049,839.517 898,838.5C 897.833,837 897.667,835.5 897.5,834C 901.444,822.128 904.444,809.961 906.5,797.5C 908.5,797.5 910.5,797.5 912.5,797.5C 912.228,801.902 912.561,806.235 913.5,810.5C 920.619,814.359 928.286,816.526 936.5,817C 939.618,818.372 942.784,819.538 946,820.5C 950.107,808.302 953.607,795.968 956.5,783.5C 956.41,781.575 955.41,780.408 953.5,780C 950.5,779.667 947.5,779.333 944.5,779C 938.295,776.322 931.795,774.489 925,773.5C 920.746,774.756 918.246,777.589 917.5,782C 915.272,782.82 913.272,782.487 911.5,781C 913.182,776.418 915.015,771.585 917,766.5C 917.42,757.09 919.92,748.423 924.5,740.5 Z"/></g>
<g><path style="opacity:1" fill="#000000" d="M 894.5,850.5 C 895.289,850.783 895.956,851.283 896.5,852C 903.952,852.231 911.285,853.231 918.5,855C 921.341,858.159 920.674,860.492 916.5,862C 913.167,862.333 909.833,862.667 906.5,863C 905.069,863.465 903.903,864.299 903,865.5C 902.484,868.034 901.317,870.2 899.5,872C 899.957,872.414 900.291,872.914 900.5,873.5C 898.268,877.196 897.268,881.196 897.5,885.5C 913.385,887.972 929.551,890.972 946,894.5C 946.893,893.919 947.893,893.585 949,893.5C 958.433,896.743 968.1,897.743 978,896.5C 979.28,892.841 980.78,889.341 982.5,886C 984.167,885.333 985.833,885.333 987.5,886C 988.059,886.725 988.392,887.558 988.5,888.5C 985.091,901.591 982.591,914.924 981,928.5C 979.606,930.402 977.773,930.735 975.5,929.5C 977.206,923.874 976.206,919.041 972.5,915C 968.812,914.81 965.312,913.976 962,912.5C 959.667,912.833 957.333,913.167 955,913.5C 951.489,911.396 947.823,910.729 944,911.5C 937.425,909.652 930.758,908.318 924,907.5C 922.732,907.616 921.398,907.949 920,908.5C 917.436,906.923 914.603,905.923 911.5,905.5C 910.033,905.723 908.533,906.056 907,906.5C 903.021,904.804 898.855,903.804 894.5,903.5C 893.557,910.144 893.391,916.811 894,923.5C 895.122,925.624 896.622,927.457 898.5,929C 902.478,930.707 906.145,932.874 909.5,935.5C 908.833,936.5 908.167,937.5 907.5,938.5C 902.039,940.058 896.705,939.224 891.5,936C 888.833,935.667 886.167,935.333 883.5,935C 882.376,934.161 881.709,932.994 881.5,931.5C 883.078,924.273 883.911,916.94 884,909.5C 884.374,908.584 884.874,907.75 885.5,907C 885.167,905.333 884.833,903.667 884.5,902C 885,901.5 885.5,901 886,900.5C 889.323,884.236 892.156,867.569 894.5,850.5 Z"/></g>
<g><path style="opacity:1" fill="#000000" d="M 2776.5,852.5 C 2777.5,852.414 2778.33,852.748 2779,853.5C 2783.05,859.424 2786.72,865.09 2790,870.5C 2798.84,889.702 2801.17,909.702 2797,930.5C 2793.84,938.197 2790.51,946.197 2787,954.5C 2769.76,978.069 2749.6,998.569 2726.5,1016C 2718.06,1024.45 2709.06,1032.11 2699.5,1039C 2676.82,1060.34 2653.49,1081.01 2629.5,1101C 2627.32,1105.19 2623.98,1107.86 2619.5,1109C 2616.04,1114.13 2611.71,1118.13 2606.5,1121C 2591.82,1136.01 2576.16,1150.01 2559.5,1163C 2557.96,1164.11 2557.3,1165.61 2557.5,1167.5C 2555.69,1167.49 2554.02,1167.99 2552.5,1169C 2545.5,1175.33 2538.5,1181.67 2531.5,1188C 2528.67,1189.25 2526,1190.75 2523.5,1192.5C 2515.2,1199.46 2507.2,1206.8 2499.5,1214.5C 2496.2,1219.3 2492.37,1223.63 2488,1227.5C 2486.67,1232.16 2484.34,1236.16 2481,1239.5C 2476.99,1250.28 2475.15,1261.45 2475.5,1273C 2475.9,1292.11 2476.4,1310.94 2477,1329.5C 2475.26,1341.61 2471.59,1352.61 2466,1362.5C 2464.96,1365.96 2464.13,1369.46 2463.5,1373C 2463.35,1375.03 2464.02,1376.7 2465.5,1378C 2475.56,1380.56 2484.4,1385.39 2492,1392.5C 2493.79,1395.44 2494.96,1398.6 2495.5,1402C 2494.9,1406 2493.9,1409.84 2492.5,1413.5C 2499.17,1413.5 2505.83,1413.5 2512.5,1413.5C 2511.89,1417.45 2510.89,1421.28 2509.5,1425C 2510.98,1429.82 2513.98,1433.49 2518.5,1436C 2523.08,1437.29 2527.42,1439.13 2531.5,1441.5C 2532.83,1447.63 2534.66,1453.63 2537,1459.5C 2539.98,1463.31 2543.15,1466.98 2546.5,1470.5C 2551.74,1472.85 2557.24,1474.19 2563,1474.5C 2571.34,1473.81 2579.5,1472.31 2587.5,1470C 2612.03,1458.85 2636.37,1448.18 2660.5,1438C 2682.54,1431.67 2705.21,1429.34 2728.5,1431C 2759.79,1433.67 2789.62,1439.84 2818,1449.5C 2818.56,1448.98 2819.23,1448.64 2820,1448.5C 2829.07,1451.17 2838.07,1453.84 2847,1456.5C 2848.27,1456.38 2849.6,1456.05 2851,1455.5C 2851.5,1456 2852,1456.5 2852.5,1457C 2871.1,1459.4 2889.76,1460.06 2908.5,1459C 2917.52,1458.23 2925.86,1456.23 2933.5,1453C 2936.48,1452.3 2939.48,1451.8 2942.5,1451.5C 2942.66,1454.19 2942.5,1456.85 2942,1459.5C 2933.18,1469.8 2924.85,1480.47 2917,1491.5C 2908.53,1500.97 2899.7,1510.14 2890.5,1519C 2884.61,1522.54 2878.94,1526.54 2873.5,1531C 2859.74,1539.89 2844.9,1545.06 2829,1546.5C 2828,1547.17 2827,1547.83 2826,1548.5C 2814.86,1547.92 2803.53,1547.92 2792,1548.5C 2790.67,1548.25 2789.67,1547.58 2789,1546.5C 2787,1547.22 2784.83,1547.55 2782.5,1547.5C 2775.15,1545.06 2767.65,1543.06 2760,1541.5C 2759.67,1541.83 2759.33,1542.17 2759,1542.5C 2748.22,1537.2 2736.72,1532.37 2724.5,1528C 2716.25,1523.04 2707.58,1518.88 2698.5,1515.5C 2678.46,1504.01 2656.62,1497.35 2633,1495.5C 2625.66,1497.19 2618.49,1498.03 2611.5,1498C 2600.83,1501.34 2590.16,1504.67 2579.5,1508C 2572.2,1512.15 2564.54,1515.48 2556.5,1518C 2542.83,1521.35 2529.66,1525.18 2517,1529.5C 2516.59,1529.04 2516.09,1528.71 2515.5,1528.5C 2501.04,1531.5 2486.7,1531 2472.5,1527C 2465.46,1523.39 2458.96,1518.89 2453,1513.5C 2448.47,1505.89 2445.64,1498.05 2444.5,1490C 2444.35,1487.97 2445.02,1486.3 2446.5,1485C 2445.41,1482.94 2445.24,1480.77 2446,1478.5C 2447.06,1476.78 2447.89,1474.95 2448.5,1473C 2441.34,1469.4 2434.84,1464.9 2429,1459.5C 2427.8,1454.4 2428.64,1449.73 2431.5,1445.5C 2431.17,1445.17 2430.83,1444.83 2430.5,1444.5C 2428.36,1444.36 2426.2,1444.36 2424,1444.5C 2421.14,1443.31 2418.3,1442.31 2415.5,1441.5C 2414.68,1439.89 2414.01,1438.23 2413.5,1436.5C 2413.61,1428.95 2413.61,1421.29 2413.5,1413.5C 2411.86,1413.29 2410.36,1413.62 2409,1414.5C 2400.58,1413.68 2392.08,1413.18 2383.5,1413C 2372.94,1406.73 2370.61,1398.06 2376.5,1387C 2376.17,1386.67 2375.83,1386.33 2375.5,1386C 2376.78,1382.5 2378.61,1379.33 2381,1376.5C 2381.33,1374.5 2381.67,1372.5 2382,1370.5C 2384.9,1366.17 2387.23,1361.5 2389,1356.5C 2390.33,1355.83 2391.33,1354.83 2392,1353.5C 2396.11,1343.59 2396.44,1333.59 2393,1323.5C 2381.38,1309.64 2378.55,1294.14 2384.5,1277C 2383.92,1276.11 2383.59,1275.11 2383.5,1274C 2386.85,1257.81 2390.35,1241.98 2394,1226.5C 2395.84,1219.7 2398.18,1212.7 2401,1205.5C 2404.28,1201.34 2406.61,1196.68 2408,1191.5C 2418.67,1175.49 2431.51,1161.32 2446.5,1149C 2481.28,1123.57 2514.61,1096.24 2546.5,1067C 2549.56,1064.28 2552.89,1061.94 2556.5,1060C 2562.17,1054 2568.17,1048.33 2574.5,1043C 2591.49,1029.67 2608.16,1016.01 2624.5,1002C 2628.34,997.073 2633.01,993.073 2638.5,990C 2643.26,984.781 2648.26,979.781 2653.5,975C 2665.43,965.741 2676.76,955.741 2687.5,945C 2688.45,944.517 2689.45,944.351 2690.5,944.5C 2691.71,941.447 2693.88,939.113 2697,937.5C 2697.5,934.333 2699.33,932.5 2702.5,932C 2705.31,928.353 2708.31,924.853 2711.5,921.5C 2714.95,920.361 2717.78,918.361 2720,915.5C 2725.28,909.761 2730.45,903.927 2735.5,898C 2737.04,897.71 2738.38,897.044 2739.5,896C 2739.17,895.667 2738.83,895.333 2738.5,895C 2750.51,883.27 2762.01,871.103 2773,858.5C 2774.42,856.595 2775.59,854.595 2776.5,852.5 Z"/></g>
<g><path style="opacity:1" fill="#000000" d="M 952.5,935.5 C 958.369,937.377 963.869,940.044 969,943.5C 969.333,943.167 969.667,942.833 970,942.5C 971.945,943.863 974.112,944.697 976.5,945C 977.578,945.674 978.245,946.674 978.5,948C 976.427,973.476 974.594,998.976 973,1024.5C 969.59,1025.87 969.757,1026.54 973.5,1026.5C 973.268,1039.19 973.602,1051.86 974.5,1064.5C 972.5,1064.5 970.5,1064.5 968.5,1064.5C 968.981,1060.41 967.481,1057.41 964,1055.5C 957.37,1057.99 950.87,1060.66 944.5,1063.5C 943.394,1075.17 943.561,1086.84 945,1098.5C 950.924,1101.9 957.591,1104.57 965,1106.5C 966.667,1105.17 968.333,1103.83 970,1102.5C 968.39,1097.6 970.223,1095.6 975.5,1096.5C 975.422,1107.11 975.755,1117.77 976.5,1128.5C 975.022,1128.76 973.689,1128.43 972.5,1127.5C 971.966,1125.39 970.966,1123.55 969.5,1122C 969.833,1121.67 970.167,1121.33 970.5,1121C 967.807,1120.66 965.807,1119.32 964.5,1117C 945.283,1110.6 926.45,1103.43 908,1095.5C 907.667,1095.83 907.333,1096.17 907,1096.5C 901.341,1093.29 895.508,1090.46 889.5,1088C 885.379,1086.1 881.046,1085.27 876.5,1085.5C 876.5,1082.5 876.5,1079.5 876.5,1076.5C 881.47,1074.79 886.47,1072.95 891.5,1071C 915.056,1057.89 939.056,1045.89 963.5,1035C 965.994,1033.05 966.661,1030.72 965.5,1028C 966.944,1026.87 967.61,1025.37 967.5,1023.5C 966.831,1019.82 966.164,1016.15 965.5,1012.5C 949.959,1011.14 933.959,1009.81 917.5,1008.5C 916.033,1008.72 914.533,1009.06 913,1009.5C 909.282,1008.71 905.616,1007.71 902,1006.5C 897,1007.83 892,1007.83 887,1006.5C 883.645,1008.85 881.978,1012.18 882,1016.5C 880.556,1018.16 878.722,1018.82 876.5,1018.5C 876.56,1008.32 876.56,998.32 876.5,988.5C 877.286,984.504 878.119,980.504 879,976.5C 880.049,974.893 881.549,974.227 883.5,974.5C 883.234,978.605 883.734,982.605 885,986.5C 886.491,988.004 888.324,988.837 890.5,989C 894.488,989.282 898.321,990.115 902,991.5C 906.553,991.569 911.22,991.235 916,990.5C 932.435,992.543 948.935,993.376 965.5,993C 968.453,980.528 968.619,968.028 966,955.5C 962.568,950.231 958.068,946.231 952.5,943.5C 951.176,940.802 951.176,938.136 952.5,935.5 Z M 934.5,1067.5 C 935.494,1076.99 935.827,1086.65 935.5,1096.5C 924.461,1092.31 913.461,1088.14 902.5,1084C 913.086,1078.3 923.753,1072.8 934.5,1067.5 Z"/></g>
<g><path style="opacity:1" fill="#000000" d="M 951.5,1132.5 C 957.842,1132.33 964.175,1132.5 970.5,1133C 973.334,1133.05 975.834,1133.88 978,1135.5C 980.715,1147.31 982.715,1159.31 984,1171.5C 987.414,1185.26 989.414,1199.26 990,1213.5C 988.612,1214.55 987.112,1214.72 985.5,1214C 984.074,1211.23 982.74,1208.39 981.5,1205.5C 979.807,1204.77 978.307,1203.77 977,1202.5C 976.692,1203.31 976.192,1203.97 975.5,1204.5C 972.292,1204.26 969.125,1203.92 966,1203.5C 965.326,1204.58 964.326,1205.25 963,1205.5C 942.502,1209 922.002,1212.5 901.5,1216C 900.333,1216.5 899.5,1217.33 899,1218.5C 898.502,1221.82 898.335,1225.15 898.5,1228.5C 893.841,1228.99 892.508,1227.15 894.5,1223C 894,1222.5 893.5,1222 893,1221.5C 892.186,1213.62 890.686,1205.95 888.5,1198.5C 888.608,1197.56 888.941,1196.72 889.5,1196C 887.938,1190.2 886.271,1184.36 884.5,1178.5C 885.016,1175.94 885.35,1173.44 885.5,1171C 883.849,1164.61 882.683,1158.11 882,1151.5C 882.5,1151 883,1150.5 883.5,1150C 890.182,1148.83 896.849,1147.66 903.5,1146.5C 906.193,1148.07 907.026,1150.41 906,1153.5C 902.945,1154.91 899.778,1156.08 896.5,1157C 894.31,1159.62 892.976,1162.62 892.5,1166C 894.417,1175.39 895.917,1184.89 897,1194.5C 897.479,1196.65 898.812,1197.65 901,1197.5C 911.074,1196.22 920.74,1194.55 930,1192.5C 930.733,1182.39 929.066,1172.72 925,1163.5C 921.105,1161.39 916.939,1160.06 912.5,1159.5C 910.96,1158.47 910.46,1157.13 911,1155.5C 916.9,1153.14 923.066,1151.97 929.5,1152C 931.067,1150.92 932.734,1150.09 934.5,1149.5C 938.672,1149.73 943.005,1149.73 947.5,1149.5C 947.66,1151.2 947.494,1152.87 947,1154.5C 942.32,1156.18 938.487,1159.01 935.5,1163C 937.622,1171.73 938.956,1180.9 939.5,1190.5C 945.358,1191.01 951.025,1190.35 956.5,1188.5C 957.962,1189.47 959.295,1189.14 960.5,1187.5C 961.086,1187.71 961.586,1188.04 962,1188.5C 966.815,1187.55 971.648,1186.55 976.5,1185.5C 976.048,1179.91 976.048,1174.41 976.5,1169C 974.405,1163.7 972.572,1158.2 971,1152.5C 967.945,1145.18 962.445,1141.02 954.5,1140C 951.959,1138.15 950.959,1135.65 951.5,1132.5 Z"/></g>
<g><path style="opacity:1" fill="#000000" d="M 985.5,1216.5 C 988.325,1216.16 990.492,1217.16 992,1219.5C 994.209,1229.3 996.875,1238.97 1000,1248.5C 1000.5,1251.82 1000.67,1255.15 1000.5,1258.5C 999.07,1258.58 997.736,1258.25 996.5,1257.5C 995.255,1252.76 992.422,1249.43 988,1247.5C 982.191,1248.61 976.191,1250.28 970,1252.5C 969.586,1252.04 969.086,1251.71 968.5,1251.5C 963.4,1253.96 958.4,1255.79 953.5,1257C 954.998,1259.48 956.498,1261.98 958,1264.5C 960.641,1274.87 963.475,1285.2 966.5,1295.5C 976.555,1292.53 986.888,1289.37 997.5,1286C 1001.12,1282.06 1002.12,1277.56 1000.5,1272.5C 1002.5,1272.5 1004.5,1272.5 1006.5,1272.5C 1008.66,1279.55 1010.66,1287.05 1012.5,1295C 1012.36,1295.77 1012.02,1296.44 1011.5,1297C 1012.43,1297.39 1013.09,1298.05 1013.5,1299C 1014.13,1302.94 1015.13,1306.78 1016.5,1310.5C 1015.96,1313.74 1014.3,1314.74 1011.5,1313.5C 1010.06,1308.56 1006.9,1305.56 1002,1304.5C 999.106,1304.35 996.773,1305.35 995,1307.5C 994,1307.17 993,1306.83 992,1306.5C 988.733,1308.1 985.233,1308.93 981.5,1309C 978.692,1309.6 976.192,1310.76 974,1312.5C 973,1312.17 972,1311.83 971,1311.5C 969,1312.83 967,1314.17 965,1315.5C 964.439,1314.98 963.772,1314.64 963,1314.5C 958.598,1315.51 954.432,1317.01 950.5,1319C 943.644,1319.38 936.977,1320.71 930.5,1323C 926.511,1326.22 925.511,1330.22 927.5,1335C 926.594,1338.18 924.761,1339.02 922,1337.5C 921.783,1334.51 920.783,1331.85 919,1329.5C 918.646,1325.65 918.146,1321.81 917.5,1318C 917.245,1316.67 916.578,1315.67 915.5,1315C 915.833,1314.67 916.167,1314.33 916.5,1314C 913.64,1308.19 911.64,1302.36 910.5,1296.5C 912.857,1296.34 915.19,1296.5 917.5,1297C 918.406,1299.45 919.239,1301.95 920,1304.5C 921.849,1305.56 923.849,1306.23 926,1306.5C 935.898,1303.07 946.065,1300.07 956.5,1297.5C 956.023,1296.52 955.357,1295.69 954.5,1295C 955.654,1294.09 955.487,1293.25 954,1292.5C 952.489,1281.43 949.656,1270.76 945.5,1260.5C 944.833,1260.17 944.167,1259.83 943.5,1259.5C 939.535,1261.4 935.535,1262.06 931.5,1261.5C 930.354,1262.14 929.354,1262.98 928.5,1264C 923.668,1264.75 919.001,1266.08 914.5,1268C 913.101,1269.06 912.101,1270.39 911.5,1272C 912.517,1274.79 912.684,1277.62 912,1280.5C 910.556,1282.16 908.722,1282.82 906.5,1282.5C 904.385,1271.27 901.552,1260.61 898,1250.5C 896.715,1246.83 896.548,1243.16 897.5,1239.5C 899.061,1238.65 900.561,1238.99 902,1240.5C 904.202,1249.37 909.702,1252.03 918.5,1248.5C 928.73,1246.1 938.563,1242.76 948,1238.5C 960.588,1237.4 972.755,1234.07 984.5,1228.5C 985.491,1224.55 985.824,1220.55 985.5,1216.5 Z"/></g>
<g><path style="opacity:1" fill="#000000" d="M 1001.5,1368.5 C 1005.32,1369.57 1006.32,1371.91 1004.5,1375.5C 1000.18,1377.32 997.512,1380.48 996.5,1385C 998.919,1390.59 1000.75,1396.43 1002,1402.5C 1004.01,1405.26 1006.01,1407.92 1008,1410.5C 1014.32,1406.54 1021.15,1403.71 1028.5,1402C 1031.83,1400 1035.17,1398 1038.5,1396C 1040.12,1394.88 1041.12,1393.38 1041.5,1391.5C 1039.63,1388.28 1039.29,1384.95 1040.5,1381.5C 1042.07,1380.69 1043.74,1380.36 1045.5,1380.5C 1050.11,1393.29 1055.44,1405.79 1061.5,1418C 1060.38,1421.57 1058.38,1422.23 1055.5,1420C 1053.09,1413.98 1048.76,1411.98 1042.5,1414C 1037.36,1417.17 1031.86,1419.67 1026,1421.5C 1024.83,1422.01 1024,1422.84 1023.5,1424C 1014.23,1426.27 1005.57,1429.94 997.5,1435C 990.853,1437.63 984.186,1440.3 977.5,1443C 976.152,1444.57 975.486,1446.41 975.5,1448.5C 976.332,1451.48 976.499,1454.48 976,1457.5C 975.311,1458.36 974.478,1459.02 973.5,1459.5C 970.751,1455.53 968.084,1451.36 965.5,1447C 965.833,1446.67 966.167,1446.33 966.5,1446C 957.761,1426.21 949.094,1406.87 940.5,1388C 940.725,1386.38 941.558,1385.21 943,1384.5C 947.205,1382.65 951.372,1380.65 955.5,1378.5C 959.603,1376.62 962.937,1377.45 965.5,1381C 961.226,1384.27 957.226,1387.94 953.5,1392C 954.455,1395.1 955.289,1398.27 956,1401.5C 957.758,1402.47 958.258,1403.64 957.5,1405C 961.311,1411.12 964.144,1417.62 966,1424.5C 966.804,1425.8 967.971,1426.47 969.5,1426.5C 973.235,1426.33 976.402,1425 979,1422.5C 979.333,1422.83 979.667,1423.17 980,1423.5C 985.806,1419 992.306,1415.84 999.5,1414C 994.458,1406.29 990.458,1398.45 987.5,1390.5C 983.545,1387.21 979.545,1386.87 975.5,1389.5C 974.264,1388.75 972.93,1388.42 971.5,1388.5C 971.244,1386.21 971.577,1384.04 972.5,1382C 981.237,1378.53 989.904,1374.86 998.5,1371C 999.942,1370.62 1000.94,1369.79 1001.5,1368.5 Z"/></g>
<g><path style="opacity:1" fill="#000000" d="M 1039.5,1438.5 C 1044.51,1438.33 1049.51,1438.5 1054.5,1439C 1056.89,1439.3 1059.06,1440.14 1061,1441.5C 1061.33,1441.17 1061.67,1440.83 1062,1440.5C 1075.62,1446.81 1085.62,1456.14 1092,1468.5C 1096.21,1480.39 1096.54,1492.39 1093,1504.5C 1087.48,1516.69 1078.81,1526.02 1067,1532.5C 1066.67,1532.17 1066.33,1531.83 1066,1531.5C 1063.53,1533.84 1060.7,1535.67 1057.5,1537C 1052.92,1537.97 1048.42,1539.14 1044,1540.5C 1042,1540.5 1040,1540.5 1038,1540.5C 1034.83,1539.46 1031.83,1538.13 1029,1536.5C 1027.95,1537.52 1026.78,1537.68 1025.5,1537C 1020.81,1534.3 1016.14,1531.63 1011.5,1529C 1007.65,1525.45 1004.15,1521.62 1001,1517.5C 997.048,1509.45 994.214,1500.95 992.5,1492C 993.566,1486.78 994.732,1480.95 996,1474.5C 998.571,1470.47 1000.57,1466.13 1002,1461.5C 1006.8,1457.7 1011.3,1453.53 1015.5,1449C 1021.2,1446.65 1026.7,1443.82 1032,1440.5C 1033,1440.83 1034,1441.17 1035,1441.5C 1036.31,1440.1 1037.81,1439.1 1039.5,1438.5 Z M 1055.5,1453.5 C 1080.37,1456.73 1089.04,1470.4 1081.5,1494.5C 1075.55,1503.29 1067.88,1510.12 1058.5,1515C 1053.17,1517.87 1047.67,1520.37 1042,1522.5C 1035.21,1523.71 1028.54,1523.71 1022,1522.5C 1019.49,1520.44 1016.66,1518.94 1013.5,1518C 1004.67,1509.83 1002.17,1500 1006,1488.5C 1008.55,1484.74 1010.55,1480.74 1012,1476.5C 1018.81,1471.7 1025.65,1466.86 1032.5,1462C 1040.33,1459.23 1048,1456.39 1055.5,1453.5 Z"/></g>
<g><path style="opacity:1" fill="#000000" d="M 1847.5,1438.5 C 1847.83,1438.5 1848.17,1438.5 1848.5,1438.5C 1848.31,1439.17 1847.98,1439.17 1847.5,1438.5 Z"/></g>
<g><path style="opacity:1" fill="#000000" d="M 1618.5,1495.5 C 1640.2,1495.22 1661.86,1495.89 1683.5,1497.5C 1686.04,1497.64 1688.38,1498.31 1690.5,1499.5C 1693.17,1499.17 1695.83,1498.83 1698.5,1498.5C 1699.31,1498.81 1699.97,1499.31 1700.5,1500C 1710.14,1501.08 1719.47,1503.08 1728.5,1506C 1733.83,1506.67 1739.17,1507.33 1744.5,1508C 1759.42,1512.38 1774.42,1516.38 1789.5,1520C 1809.23,1527.24 1829.73,1533.41 1851,1538.5C 1851.9,1539.7 1853.07,1540.53 1854.5,1541C 1858.47,1541.85 1862.47,1542.52 1866.5,1543C 1881.84,1549.23 1897.51,1554.23 1913.5,1558C 1926.99,1562.91 1940.49,1567.75 1954,1572.5C 1954.33,1572.17 1954.67,1571.83 1955,1571.5C 1961.86,1575.67 1969.36,1578.34 1977.5,1579.5C 1989.69,1584.27 2002.02,1588.44 2014.5,1592C 2023.62,1596.11 2032.96,1599.61 2042.5,1602.5C 2050.18,1605.56 2057.84,1608.73 2065.5,1612C 2068.79,1612.88 2072.12,1613.55 2075.5,1614C 2087.25,1619.2 2099.25,1623.87 2111.5,1628C 2127.73,1634.45 2143.73,1641.45 2159.5,1649C 2169.63,1656.06 2180.29,1662.06 2191.5,1667C 2194.09,1670.55 2197.59,1672.72 2202,1673.5C 2209.63,1679.8 2217.8,1685.3 2226.5,1690C 2236,1697.17 2242.83,1706.34 2247,1717.5C 2247.97,1730.25 2245.97,1742.58 2241,1754.5C 2235.93,1761.99 2230.1,1769.49 2223.5,1777C 2211.17,1788.15 2198.5,1798.82 2185.5,1809C 2175.58,1818.92 2165.42,1828.42 2155,1837.5C 2149.14,1845.91 2144.47,1854.58 2141,1863.5C 2138.44,1874.74 2138.44,1886.07 2141,1897.5C 2143.67,1906.18 2146.34,1914.84 2149,1923.5C 2152.68,1928.87 2156.35,1934.2 2160,1939.5C 2182.74,1960.03 2209.57,1969.36 2240.5,1967.5C 2249.55,1967.44 2258.55,1966.77 2267.5,1965.5C 2269.82,1965.53 2270.99,1966.53 2271,1968.5C 2259.48,1983.18 2245.32,1994.51 2228.5,2002.5C 2223.55,2006 2217.89,2009.16 2211.5,2012C 2201.24,2015.41 2191.41,2019.58 2182,2024.5C 2181.67,2024.17 2181.33,2023.83 2181,2023.5C 2137.88,2040.06 2099.71,2032.4 2066.5,2000.5C 2063.5,1995.16 2060,1990.16 2056,1985.5C 2051.61,1976.48 2048.11,1967.15 2045.5,1957.5C 2045.61,1956.56 2045.94,1955.72 2046.5,1955C 2044.82,1947.73 2043.82,1940.23 2043.5,1932.5C 2046.33,1920.56 2049.83,1908.56 2054,1896.5C 2059.07,1889.92 2063.41,1882.92 2067,1875.5C 2073.39,1869.05 2079.05,1862.05 2084,1854.5C 2095.45,1841.39 2108.62,1830.55 2123.5,1822C 2128.02,1817.45 2132.85,1813.28 2138,1809.5C 2139.57,1805.93 2141.91,1802.93 2145,1800.5C 2146.71,1795.62 2148.54,1791.29 2150.5,1787.5C 2151.59,1780.53 2151.76,1773.53 2151,1766.5C 2149.14,1760.07 2145.8,1754.07 2141,1748.5C 2135.03,1742.51 2128.53,1737.35 2121.5,1733C 2102.67,1724.7 2084.01,1716.7 2065.5,1709C 2062.95,1708.24 2060.45,1707.41 2058,1706.5C 2057.67,1706.83 2057.33,1707.17 2057,1707.5C 2055.59,1706.21 2054.09,1705.05 2052.5,1704C 2045.22,1700.23 2037.55,1697.23 2029.5,1695C 2001.54,1681.89 1972.54,1669.89 1942.5,1659C 1926.42,1651.79 1910.42,1645.29 1894.5,1639.5C 1893.91,1639.71 1893.41,1640.04 1893,1640.5C 1892.1,1639.3 1890.93,1638.47 1889.5,1638C 1858.3,1627.61 1827.14,1618.11 1796,1609.5C 1789.7,1606.63 1783.2,1604.13 1776.5,1602C 1761.23,1597.31 1745.56,1592.64 1729.5,1588C 1728.11,1586.35 1726.61,1585.85 1725,1586.5C 1714.03,1581.55 1702.53,1578.38 1690.5,1577C 1684.7,1574.78 1678.37,1572.95 1671.5,1571.5C 1670.91,1571.71 1670.41,1572.04 1670,1572.5C 1664.59,1570.94 1659.25,1569.27 1654,1567.5C 1652.76,1567.46 1651.42,1567.79 1650,1568.5C 1648.94,1568.37 1648.11,1567.87 1647.5,1567C 1631.17,1566.33 1614.83,1566.33 1598.5,1567C 1588.77,1571.38 1580.11,1577.38 1572.5,1585C 1569.06,1587.05 1565.39,1588.55 1561.5,1589.5C 1559.99,1584.55 1559.33,1579.38 1559.5,1574C 1560.74,1564.95 1561.91,1555.79 1563,1546.5C 1566.73,1538.04 1570.73,1529.71 1575,1521.5C 1580.89,1515.28 1587.06,1509.44 1593.5,1504C 1601.2,1498.84 1609.53,1496 1618.5,1495.5 Z"/></g>
<g><path style="opacity:1" fill="#000000" d="M 1143.5,1553.5 C 1146.73,1555.2 1149.56,1557.53 1152,1560.5C 1158.94,1569.52 1165.77,1578.69 1172.5,1588C 1171.66,1589.17 1170.83,1590.34 1170,1591.5C 1166.55,1590.04 1163.72,1587.87 1161.5,1585C 1159.17,1584.33 1156.83,1584.33 1154.5,1585C 1134.51,1600.99 1114.51,1616.99 1094.5,1633C 1099.05,1638.43 1104.05,1643.43 1109.5,1648C 1115.65,1648.17 1121.15,1646.34 1126,1642.5C 1129.42,1644.97 1130.09,1647.97 1128,1651.5C 1127.67,1651.17 1127.33,1650.83 1127,1650.5C 1121.2,1655.58 1115.03,1659.91 1108.5,1663.5C 1107.83,1663.17 1107.17,1662.83 1106.5,1662.5C 1101.11,1654.47 1095.27,1646.8 1089,1639.5C 1087.62,1637.79 1085.96,1636.45 1084,1635.5C 1083.03,1633.61 1082.36,1631.61 1082,1629.5C 1074.44,1621.39 1067.11,1613.06 1060,1604.5C 1059.8,1602.14 1058.64,1600.47 1056.5,1599.5C 1057.53,1598.3 1058.36,1596.97 1059,1595.5C 1065.07,1591.7 1070.57,1587.2 1075.5,1582C 1076.5,1581.33 1077.5,1581.33 1078.5,1582C 1079.31,1583.31 1080.31,1584.48 1081.5,1585.5C 1078.77,1588.39 1076.27,1591.39 1074,1594.5C 1072.1,1598.2 1072.1,1601.86 1074,1605.5C 1077.1,1609.75 1079.94,1614.08 1082.5,1618.5C 1083.55,1618.65 1084.55,1618.48 1085.5,1618C 1097.32,1609.54 1108.65,1600.2 1119.5,1590C 1120.87,1589.6 1122.21,1589.1 1123.5,1588.5C 1128.19,1583.11 1133.69,1578.78 1140,1575.5C 1141.79,1572.7 1143.96,1570.2 1146.5,1568C 1144.37,1564.25 1142.37,1560.41 1140.5,1556.5C 1141.34,1555.27 1142.34,1554.27 1143.5,1553.5 Z"/></g>
<g><path style="opacity:1" fill="#000000" d="M 1195.5,1613.5 C 1196.68,1613.28 1197.68,1613.61 1198.5,1614.5C 1199.1,1616.61 1199.44,1618.77 1199.5,1621C 1197.23,1648.24 1194.06,1675.07 1190,1701.5C 1189.33,1705.5 1189.33,1709.5 1190,1713.5C 1193.97,1708.86 1197.97,1704.19 1202,1699.5C 1211.44,1689.72 1221.11,1680.39 1231,1671.5C 1232.7,1669.44 1233.86,1667.11 1234.5,1664.5C 1232.83,1661.5 1231.17,1658.5 1229.5,1655.5C 1230.28,1653.85 1231.44,1652.52 1233,1651.5C 1241,1659.5 1249,1667.5 1257,1675.5C 1257.92,1678.28 1257.09,1680.28 1254.5,1681.5C 1251.41,1679.07 1248.08,1677.07 1244.5,1675.5C 1242.08,1676.46 1239.92,1677.79 1238,1679.5C 1237.67,1679.17 1237.33,1678.83 1237,1678.5C 1232.35,1683.98 1227.52,1689.32 1222.5,1694.5C 1210.85,1704.65 1199.69,1715.31 1189,1726.5C 1186.59,1732.88 1187.75,1738.55 1192.5,1743.5C 1191.5,1744.33 1190.5,1745.17 1189.5,1746C 1183.41,1742.25 1178.07,1737.25 1173.5,1731C 1172.55,1730.52 1171.55,1730.35 1170.5,1730.5C 1170.45,1726.61 1170.12,1723.11 1169.5,1720C 1170,1718 1171,1716.34 1172.5,1715C 1170.94,1712.36 1171.27,1710.02 1173.5,1708C 1172.98,1704.64 1172.64,1701.3 1172.5,1698C 1174.1,1694.73 1174.93,1691.23 1175,1687.5C 1176.54,1672.94 1177.87,1658.28 1179,1643.5C 1165.87,1656.44 1153.21,1669.77 1141,1683.5C 1140.33,1685.17 1140.33,1686.83 1141,1688.5C 1142.79,1691.75 1144.29,1695.08 1145.5,1698.5C 1143.8,1698.66 1142.13,1698.49 1140.5,1698C 1135.09,1694.71 1130.93,1690.21 1128,1684.5C 1124.76,1681.58 1121.26,1679.08 1117.5,1677C 1117.8,1675.68 1117.97,1674.18 1118,1672.5C 1118.67,1671.83 1119.33,1671.17 1120,1670.5C 1123.67,1672.17 1127.33,1673.83 1131,1675.5C 1132.93,1673.96 1135.1,1672.79 1137.5,1672C 1155.91,1652.42 1175.25,1632.92 1195.5,1613.5 Z"/></g>
<g><path style="opacity:1" fill="#000000" d="M 1262.5,1682.5 C 1264.31,1682.49 1265.98,1682.99 1267.5,1684C 1283.14,1697.49 1299.14,1710.32 1315.5,1722.5C 1318.09,1726.77 1321.76,1729.44 1326.5,1730.5C 1327.24,1733.93 1325.91,1735.6 1322.5,1735.5C 1319.56,1734.4 1316.73,1733.06 1314,1731.5C 1312.37,1731.63 1310.87,1732.13 1309.5,1733C 1301.06,1744.78 1291.89,1755.94 1282,1766.5C 1280.33,1769.5 1278.67,1772.5 1277,1775.5C 1275.33,1776.83 1273.67,1778.17 1272,1779.5C 1269.44,1784.72 1266.11,1789.39 1262,1793.5C 1261.33,1794.5 1261.33,1795.5 1262,1796.5C 1264.07,1799.39 1266.24,1802.05 1268.5,1804.5C 1267.87,1806.3 1266.7,1807.63 1265,1808.5C 1257.71,1804.04 1251.21,1798.54 1245.5,1792C 1242.05,1790.06 1238.72,1787.89 1235.5,1785.5C 1234.74,1784.37 1234.07,1783.21 1233.5,1782C 1230.5,1780.33 1227.5,1778.67 1224.5,1777C 1217.98,1769.6 1210.98,1763.44 1203.5,1758.5C 1207.86,1753.47 1211.86,1748.13 1215.5,1742.5C 1218.55,1740.91 1220.89,1741.57 1222.5,1744.5C 1221.92,1748.49 1220.59,1752.15 1218.5,1755.5C 1220.16,1758.02 1221.66,1760.68 1223,1763.5C 1228.78,1767.28 1233.95,1771.78 1238.5,1777C 1241.79,1777.62 1244.62,1779.12 1247,1781.5C 1247.93,1778.9 1249.77,1777.4 1252.5,1777C 1254.37,1773.81 1256.2,1770.65 1258,1767.5C 1261.67,1764.21 1265.17,1760.71 1268.5,1757C 1265.47,1755.14 1262.47,1753.14 1259.5,1751C 1255.36,1745.86 1250.36,1741.86 1244.5,1739C 1243.17,1738.33 1241.83,1738.33 1240.5,1739C 1238.1,1740.95 1235.6,1742.79 1233,1744.5C 1230.79,1744.15 1229.29,1742.99 1228.5,1741C 1232.52,1736.16 1236.19,1730.99 1239.5,1725.5C 1242.32,1722.18 1245.32,1719.02 1248.5,1716C 1248.17,1715.67 1247.83,1715.33 1247.5,1715C 1249.44,1714.26 1251.27,1714.42 1253,1715.5C 1252.97,1719.76 1252.14,1723.93 1250.5,1728C 1251.65,1730.44 1252.98,1732.78 1254.5,1735C 1260.9,1739.95 1267.4,1744.79 1274,1749.5C 1275.59,1747.37 1277.09,1745.2 1278.5,1743C 1279.45,1742.52 1280.45,1742.35 1281.5,1742.5C 1283.5,1736.52 1287,1731.52 1292,1727.5C 1292.29,1724.56 1293.46,1722.06 1295.5,1720C 1286.45,1709.39 1275.28,1701.89 1262,1697.5C 1256.82,1698.7 1251.82,1700.37 1247,1702.5C 1242.81,1701.85 1241.64,1699.68 1243.5,1696C 1245.73,1695.44 1247.73,1694.44 1249.5,1693C 1253.72,1689.27 1258.06,1685.77 1262.5,1682.5 Z"/></g>
<g><path style="opacity:1" fill="#000000" d="M 1327.5,1734.5 C 1338.2,1740.35 1348.53,1746.85 1358.5,1754C 1360.13,1754.49 1361.8,1754.66 1363.5,1754.5C 1363.74,1756.47 1363.41,1758.3 1362.5,1760C 1358.81,1760.22 1355.31,1759.39 1352,1757.5C 1348.71,1759.78 1345.71,1762.45 1343,1765.5C 1333.37,1780.78 1324.21,1796.28 1315.5,1812C 1316.91,1812.32 1318.24,1811.98 1319.5,1811C 1325.31,1805.86 1331.64,1801.52 1338.5,1798C 1339.17,1797 1339.83,1796 1340.5,1795C 1347.03,1791.57 1353.36,1787.91 1359.5,1784C 1364.65,1779.59 1369.99,1775.43 1375.5,1771.5C 1378.23,1769.63 1381.23,1768.63 1384.5,1768.5C 1382.59,1795.75 1379.76,1822.75 1376,1849.5C 1386.47,1832.35 1396.97,1815.18 1407.5,1798C 1408.08,1796.43 1408.08,1794.59 1407.5,1792.5C 1405.17,1789.5 1402.5,1786.83 1399.5,1784.5C 1400.99,1780.78 1403.32,1779.95 1406.5,1782C 1409.32,1784.57 1412.32,1786.91 1415.5,1789C 1422.08,1792.11 1428.08,1795.95 1433.5,1800.5C 1433.13,1801.91 1432.3,1802.91 1431,1803.5C 1426.92,1801.85 1422.42,1801.35 1417.5,1802C 1413.12,1806.04 1409.96,1810.88 1408,1816.5C 1397.71,1832.81 1387.37,1849.14 1377,1865.5C 1376.06,1870.94 1378.22,1874.6 1383.5,1876.5C 1384.47,1878.4 1384.8,1880.4 1384.5,1882.5C 1382.01,1882.7 1379.68,1882.2 1377.5,1881C 1369.99,1876.08 1362.65,1870.91 1355.5,1865.5C 1356.5,1861.35 1357.5,1857.18 1358.5,1853C 1360.67,1832.1 1362.84,1811.27 1365,1790.5C 1361.59,1793.45 1358.09,1796.29 1354.5,1799C 1337.73,1808.89 1321.39,1819.56 1305.5,1831C 1304.79,1832.25 1303.96,1833.42 1303,1834.5C 1297.79,1831.88 1293.13,1828.55 1289,1824.5C 1288.67,1824.83 1288.33,1825.17 1288,1825.5C 1284.72,1823.73 1281.55,1821.73 1278.5,1819.5C 1277.53,1817.6 1277.2,1815.6 1277.5,1813.5C 1281.81,1814.5 1286.14,1815 1290.5,1815C 1296.92,1807.44 1302.26,1799.27 1306.5,1790.5C 1307.24,1789.71 1308.08,1789.05 1309,1788.5C 1313.78,1778.06 1319.78,1768.39 1327,1759.5C 1327.33,1756 1328.83,1753.16 1331.5,1751C 1332.41,1749.21 1332.58,1747.38 1332,1745.5C 1328.91,1743.55 1326.41,1741.05 1324.5,1738C 1325.54,1736.83 1326.54,1735.66 1327.5,1734.5 Z"/></g>
<g><path style="opacity:1" fill="#000000" d="M 1453.5,1808.5 C 1462.78,1810.96 1471.78,1814.46 1480.5,1819C 1484.31,1821.38 1488.31,1823.38 1492.5,1825C 1495.19,1827.49 1494.69,1829.33 1491,1830.5C 1484.52,1826.74 1479.52,1828.07 1476,1834.5C 1465.36,1856.25 1455.19,1878.25 1445.5,1900.5C 1452.54,1906.04 1460.54,1907.88 1469.5,1906C 1473.08,1902.59 1476.41,1899.09 1479.5,1895.5C 1481.52,1896.17 1483.18,1897.34 1484.5,1899C 1481.82,1903.2 1479.82,1907.7 1478.5,1912.5C 1476.48,1916.55 1473.98,1920.22 1471,1923.5C 1456.28,1915.92 1441.12,1909.08 1425.5,1903C 1421.16,1900.5 1416.82,1898 1412.5,1895.5C 1411.91,1895.71 1411.41,1896.04 1411,1896.5C 1405.68,1893.51 1400.52,1890.35 1395.5,1887C 1397.95,1882.41 1399.79,1877.58 1401,1872.5C 1403.11,1870.62 1404.44,1868.29 1405,1865.5C 1406.78,1863 1408.45,1863 1410,1865.5C 1409.74,1871.21 1409.91,1876.88 1410.5,1882.5C 1416.44,1887.8 1423.1,1891.8 1430.5,1894.5C 1435.19,1881.24 1440.36,1868.24 1446,1855.5C 1452.18,1844.65 1457.68,1833.48 1462.5,1822C 1460.92,1820.17 1459.59,1818.17 1458.5,1816C 1455.83,1815 1453.49,1813.5 1451.5,1811.5C 1452.19,1810.48 1452.86,1809.48 1453.5,1808.5 Z"/></g>
<g><path style="opacity:1" fill="#000000" d="M 1505.5,1831.5 C 1513.46,1834.71 1521.46,1837.71 1529.5,1840.5C 1534.4,1852.78 1539.4,1865.45 1544.5,1878.5C 1544.29,1879.09 1543.96,1879.59 1543.5,1880C 1546.26,1884.81 1548.93,1889.64 1551.5,1894.5C 1555.62,1886.5 1559.12,1878.5 1562,1870.5C 1562.67,1866.5 1562.67,1862.5 1562,1858.5C 1559.21,1857.44 1556.54,1856.1 1554,1854.5C 1552.71,1851.14 1553.71,1849.14 1557,1848.5C 1581.97,1858.77 1607.47,1866.27 1633.5,1871C 1634.86,1872.94 1634.53,1874.6 1632.5,1876C 1629.83,1876.33 1627.17,1876.67 1624.5,1877C 1623.9,1878.06 1623.57,1879.23 1623.5,1880.5C 1624.58,1883.73 1624.58,1886.9 1623.5,1890C 1625.36,1893.24 1626.69,1896.74 1627.5,1900.5C 1628.38,1901.25 1629.38,1901.75 1630.5,1902C 1635.3,1902.16 1639.8,1903.32 1644,1905.5C 1644.72,1904.94 1645.56,1904.61 1646.5,1904.5C 1651.75,1906.49 1657.09,1907.16 1662.5,1906.5C 1665.56,1902.62 1668.39,1898.62 1671,1894.5C 1673.09,1891.18 1672.93,1888.01 1670.5,1885C 1668.98,1883.99 1667.31,1883.49 1665.5,1883.5C 1665.34,1881.8 1665.51,1880.13 1666,1878.5C 1666.56,1877.98 1667.23,1877.64 1668,1877.5C 1677.33,1880.45 1686.5,1882.45 1695.5,1883.5C 1695.5,1885.5 1695.5,1887.5 1695.5,1889.5C 1694.18,1889.67 1693.01,1889.34 1692,1888.5C 1687.72,1891.12 1683.72,1894.12 1680,1897.5C 1671.42,1911.09 1662.42,1924.42 1653,1937.5C 1651.44,1939.97 1649.44,1941.97 1647,1943.5C 1643.84,1950.6 1639.51,1956.93 1634,1962.5C 1633.1,1966.9 1630.6,1969.9 1626.5,1971.5C 1624.07,1970.23 1622.57,1968.23 1622,1965.5C 1618.82,1943.96 1614.32,1922.79 1608.5,1902C 1609.28,1899.11 1608.61,1896.45 1606.5,1894C 1606.46,1892.76 1606.79,1891.42 1607.5,1890C 1606.35,1885.78 1605.18,1881.28 1604,1876.5C 1601.47,1872.52 1598.64,1868.85 1595.5,1865.5C 1594.31,1866.84 1592.81,1867.51 1591,1867.5C 1589.2,1865.64 1587.2,1864.98 1585,1865.5C 1581.85,1868.65 1579.51,1872.32 1578,1876.5C 1573.1,1890.9 1568.1,1904.9 1563,1918.5C 1562.86,1924.4 1561.2,1929.73 1558,1934.5C 1557.13,1937.49 1556.8,1940.49 1557,1943.5C 1559.33,1945.5 1561.67,1947.5 1564,1949.5C 1564.88,1951.64 1564.38,1953.31 1562.5,1954.5C 1554.77,1953.31 1547.6,1950.65 1541,1946.5C 1527.69,1943.89 1515.36,1938.56 1504,1930.5C 1500.31,1926.83 1497.48,1922.66 1495.5,1918C 1495.5,1914.67 1495.5,1911.33 1495.5,1908C 1497.67,1905.18 1499.17,1902.01 1500,1898.5C 1502.64,1896.11 1505.14,1893.61 1507.5,1891C 1514.66,1888.99 1521.99,1887.99 1529.5,1888C 1528.67,1887.17 1527.83,1886.33 1527,1885.5C 1526.41,1879.72 1524.74,1874.72 1522,1870.5C 1518.85,1861.58 1515.85,1852.58 1513,1843.5C 1511.01,1840.33 1508.18,1838.33 1504.5,1837.5C 1504.33,1835.38 1504.66,1833.38 1505.5,1831.5 Z M 1530.5,1897.5 C 1535.95,1898.49 1541.62,1899.66 1547.5,1901C 1548.5,1901.83 1549.5,1902.67 1550.5,1903.5C 1545.87,1914.22 1541.7,1925.22 1538,1936.5C 1536.67,1935.17 1535.33,1935.17 1534,1936.5C 1529.41,1933.6 1524.58,1931.1 1519.5,1929C 1516.31,1927.07 1514.81,1924.23 1515,1920.5C 1514.04,1914.12 1515.54,1908.45 1519.5,1903.5C 1523.14,1901.18 1526.81,1899.18 1530.5,1897.5 Z M 1628.5,1910.5 C 1637.89,1911.45 1646.89,1913.78 1655.5,1917.5C 1648.11,1927.46 1641.11,1937.12 1634.5,1946.5C 1633.49,1934.29 1631.49,1922.29 1628.5,1910.5 Z"/></g>
<g><path style="opacity:1" fill="#000000" d="M 1719.5,1885.5 C 1733.3,1887.73 1747.13,1889.73 1761,1891.5C 1761.78,1892.94 1761.61,1894.28 1760.5,1895.5C 1758.5,1895.5 1756.5,1895.5 1754.5,1895.5C 1751.87,1896.3 1750.03,1897.97 1749,1900.5C 1745.1,1923.38 1742.1,1946.38 1740,1969.5C 1738.18,1970.75 1738.34,1971.92 1740.5,1973C 1739.83,1974.75 1739.49,1976.42 1739.5,1978C 1741.91,1979.58 1744.58,1980.58 1747.5,1981C 1749.99,1982.95 1750.66,1985.28 1749.5,1988C 1739.18,1987.28 1728.85,1986.28 1718.5,1985C 1718,1984.5 1717.5,1984 1717,1983.5C 1714.25,1984.3 1711.25,1984.63 1708,1984.5C 1707.39,1982.52 1706.39,1982.19 1705,1983.5C 1702.83,1981.54 1700.5,1981.2 1698,1982.5C 1697.69,1981.69 1697.19,1981.03 1696.5,1980.5C 1683.26,1977.09 1675.92,1968.59 1674.5,1955C 1674.44,1953.29 1675.11,1951.96 1676.5,1951C 1676.71,1943.58 1679.71,1937.24 1685.5,1932C 1693.57,1929.37 1701.74,1927.21 1710,1925.5C 1715.25,1926.24 1720.58,1927.58 1726,1929.5C 1727.48,1918.94 1729.31,1908.77 1731.5,1899C 1728.81,1894.39 1725.15,1891.89 1720.5,1891.5C 1719.53,1889.6 1719.2,1887.6 1719.5,1885.5 Z M 1708.5,1935.5 C 1712.35,1936.68 1716.18,1936.68 1720,1935.5C 1725.75,1936.36 1727.75,1939.69 1726,1945.5C 1724.12,1953.99 1722.79,1962.66 1722,1971.5C 1721.78,1973.38 1721.12,1975.05 1720,1976.5C 1709.54,1976.21 1700.87,1971.87 1694,1963.5C 1691.18,1949.96 1696.01,1940.63 1708.5,1935.5 Z"/></g>
<g><path style="opacity:1" fill="#000000" d="M 1930.5,1885.5 C 1937.35,1886.11 1944.35,1886.11 1951.5,1885.5C 1951.5,1887.17 1951.5,1888.83 1951.5,1890.5C 1944.59,1890.77 1940.59,1894.1 1939.5,1900.5C 1942.59,1921.7 1944.76,1943.03 1946,1964.5C 1946.36,1968.15 1947.19,1971.65 1948.5,1975C 1952.17,1977.13 1956.17,1977.96 1960.5,1977.5C 1960.5,1979.17 1960.5,1980.83 1960.5,1982.5C 1944.6,1983.12 1928.27,1984.46 1911.5,1986.5C 1906.83,1986.33 1902.17,1986.17 1897.5,1986C 1890.22,1983.98 1882.56,1980.98 1874.5,1977C 1870.13,1971.97 1865.8,1966.97 1861.5,1962C 1861.83,1961.67 1862.17,1961.33 1862.5,1961C 1859.21,1955.38 1857.38,1949.21 1857,1942.5C 1856.5,1942 1856,1941.5 1855.5,1941C 1855.75,1922.78 1863.75,1907.78 1879.5,1896C 1883.47,1895.52 1887.13,1894.18 1890.5,1892C 1903.34,1889.27 1916.34,1887.6 1929.5,1887C 1930.06,1886.62 1930.39,1886.12 1930.5,1885.5 Z M 1913.5,1895.5 C 1915.68,1895.91 1918.01,1896.08 1920.5,1896C 1921.21,1897.25 1922.04,1898.42 1923,1899.5C 1924.39,1912.98 1925.55,1926.48 1926.5,1940C 1926.47,1942.42 1926.14,1944.76 1925.5,1947C 1926,1947.5 1926.5,1948 1927,1948.5C 1928.43,1958.05 1928.59,1967.55 1927.5,1977C 1909.89,1980.35 1895.05,1975.52 1883,1962.5C 1876.88,1951.93 1874.55,1940.26 1876,1927.5C 1877.15,1922.73 1878.99,1918.23 1881.5,1914C 1881.17,1913.67 1880.83,1913.33 1880.5,1913C 1888.95,1903.22 1899.61,1897.89 1912.5,1897C 1913.06,1896.62 1913.39,1896.12 1913.5,1895.5 Z"/></g>
<g><path style="opacity:1" fill="#000000" d="M 1769.5,1891.5 C 1775.51,1891.33 1781.51,1891.5 1787.5,1892C 1788.42,1892.37 1789.25,1892.87 1790,1893.5C 1808.43,1893.37 1826.43,1893.04 1844,1892.5C 1846.39,1893.28 1848.56,1894.44 1850.5,1896C 1849.83,1897.33 1848.83,1898.33 1847.5,1899C 1844.77,1899.41 1842.1,1900.08 1839.5,1901C 1838.33,1904.17 1837.17,1907.33 1836,1910.5C 1835.5,1934.5 1835.33,1958.5 1835.5,1982.5C 1838.97,1983.15 1842.13,1984.48 1845,1986.5C 1845.33,1986.17 1845.67,1985.83 1846,1985.5C 1847.19,1986.56 1847.69,1987.9 1847.5,1989.5C 1828.9,1989.36 1810.73,1989.69 1793,1990.5C 1790.33,1989.83 1787.67,1989.17 1785,1988.5C 1779.96,1988.72 1774.79,1988.72 1769.5,1988.5C 1769.5,1980.83 1769.5,1973.17 1769.5,1965.5C 1771.29,1965.21 1772.95,1965.55 1774.5,1966.5C 1775.57,1970.01 1776.57,1973.51 1777.5,1977C 1780.53,1979.13 1783.69,1979.97 1787,1979.5C 1788,1980.17 1789,1980.83 1790,1981.5C 1798.14,1980.52 1806.48,1980.52 1815,1981.5C 1816.33,1980.83 1817.33,1979.83 1818,1978.5C 1819.11,1968.53 1819.61,1958.53 1819.5,1948.5C 1810.04,1947.52 1801.54,1946.85 1794,1946.5C 1791.96,1948.07 1789.63,1949.07 1787,1949.5C 1785.24,1952.96 1784.07,1956.63 1783.5,1960.5C 1781.5,1961.83 1779.5,1961.83 1777.5,1960.5C 1776.33,1950.18 1776.17,1939.85 1777,1929.5C 1777.54,1926.79 1779.04,1924.79 1781.5,1923.5C 1782.48,1923.98 1783.31,1924.64 1784,1925.5C 1784.06,1930.28 1785.56,1934.44 1788.5,1938C 1798.82,1939.1 1809.15,1939.93 1819.5,1940.5C 1819.67,1928.16 1819.5,1915.83 1819,1903.5C 1817.05,1902.89 1815.22,1902.06 1813.5,1901C 1802.22,1899.59 1791.22,1900.59 1780.5,1904C 1777.73,1905.47 1775.23,1907.3 1773,1909.5C 1771.96,1912.41 1770.8,1915.24 1769.5,1918C 1766.85,1918.5 1764.19,1918.66 1761.5,1918.5C 1761.18,1916.28 1761.84,1914.44 1763.5,1913C 1763.17,1912.67 1762.83,1912.33 1762.5,1912C 1764.02,1908.56 1765.69,1905.23 1767.5,1902C 1766.98,1901.44 1766.64,1900.77 1766.5,1900C 1768.49,1897.52 1769.49,1894.69 1769.5,1891.5 Z"/></g>
</svg>
